<svg width="1920" height="1080" viewBox="0 0 1920 1080" fill="none" xmlns="http://www.w3.org/2000/svg">
<path d="M646 540H668.502C668.502 539.833 668.5 539.667 668.5 539.5C668.5 489.729 678.303 440.445 697.35 394.463C716.396 348.481 744.313 306.7 779.507 271.507C814.7 236.313 856.481 208.396 902.463 189.35C948.291 170.367 997.399 160.566 1047 160.501V0H1048V540H1426V0H1427V540H1920V541H1427V1080H1426V541H1048V1080H1047V918.498C997.399 918.433 948.291 908.633 902.463 889.65C856.481 870.604 814.7 842.687 779.507 807.493C744.313 772.3 716.396 730.519 697.35 684.537C678.494 639.017 668.7 590.261 668.505 541H646V1080H645V541H0V540H645V0H646V540ZM669.505 541C669.7 590.13 679.469 638.755 698.273 684.154C717.27 730.015 745.113 771.686 780.214 806.786C815.314 841.887 856.985 869.73 902.846 888.727C947.839 907.363 996.001 917.125 1044.68 917.488L1047 917.498V541H669.505ZM1047 161.502C997.53 161.567 948.553 171.341 902.846 190.273C856.985 209.27 815.314 237.113 780.214 272.214C745.113 307.314 717.27 348.985 698.273 394.846C679.277 440.707 669.5 489.86 669.5 539.5C669.5 539.667 669.502 539.833 669.502 540H1047V161.502Z" fill="#F5F5F5" fill-opacity="0.15"/>
</svg>
