<svg width="16" height="16" viewBox="0 0 16 16" fill="none" xmlns="http://www.w3.org/2000/svg">
<path d="M7.29297 0.292969C7.68349 -0.0975555 8.31651 -0.0975555 8.70703 0.292969L15.707 7.29297C15.7548 7.34078 15.7976 7.39354 15.835 7.4502C15.8597 7.48768 15.8812 7.52661 15.9004 7.56641C15.9222 7.61159 15.9412 7.65838 15.9561 7.70703C15.9623 7.72732 15.9668 7.74799 15.9717 7.76855C15.9893 7.84291 16 7.92025 16 8C16 8.083 15.9878 8.16313 15.9688 8.24023C15.9646 8.25717 15.9611 8.27428 15.9561 8.29102C15.9412 8.34001 15.9223 8.38713 15.9004 8.43262C15.8804 8.47428 15.8572 8.51458 15.8311 8.55371C15.8185 8.57256 15.8048 8.59048 15.791 8.6084C15.7649 8.6422 15.738 8.67604 15.707 8.70703L8.70703 15.707C8.31652 16.0975 7.68349 16.0975 7.29297 15.707C6.90246 15.3165 6.90248 14.6835 7.29297 14.293L12.5859 9H1C0.447742 9 4.27761e-05 8.55225 0 8C0 7.44772 0.447715 7 1 7H12.5859L7.29297 1.70703C6.90246 1.31652 6.90248 0.683496 7.29297 0.292969Z" fill="#F5F5F5"/>
</svg>
