<svg width="16" height="16" viewBox="0 0 16 16" fill="none" xmlns="http://www.w3.org/2000/svg">
<path d="M7.29297 0.292969C7.68349 -0.0975555 8.31651 -0.0975555 8.70703 0.292969C9.09751 0.683497 9.09754 1.31652 8.70703 1.70703L3.41406 7H15C15.5523 7 16 7.44772 16 8C16 8.55225 15.5523 9 15 9H3.41406L8.70703 14.293C9.09751 14.6835 9.09754 15.3165 8.70703 15.707C8.31652 16.0975 7.68349 16.0975 7.29297 15.707L0.292969 8.70703C0.261835 8.6759 0.234177 8.64237 0.208008 8.6084C0.194229 8.59049 0.180532 8.57255 0.167969 8.55371C0.141954 8.51472 0.119559 8.47412 0.0996094 8.43262C0.0776669 8.38704 0.0578824 8.34011 0.0429688 8.29102C0.0378961 8.27429 0.0344505 8.25716 0.0302734 8.24023C0.0112452 8.16319 6.42256e-06 8.08292 0 8C0 7.92032 0.00973815 7.84285 0.0273438 7.76855C0.0322129 7.748 0.0367831 7.7273 0.0429688 7.70703C0.05787 7.65828 0.0777724 7.61168 0.0996094 7.56641C0.118773 7.52661 0.140298 7.48768 0.165039 7.4502C0.202418 7.39354 0.245161 7.34078 0.292969 7.29297L7.29297 0.292969Z" fill="currentColor"/>
</svg>
