<svg width="30" height="22" viewBox="0 0 30 22" fill="none" xmlns="http://www.w3.org/2000/svg">
<path d="M25.668 0.666992C27.6929 0.667158 29.335 2.30904 29.335 4.33398V17.667C29.3348 19.6918 27.6928 21.3338 25.668 21.334H4.33496C2.31002 21.334 0.668142 19.6919 0.667969 17.667V4.33398C0.667969 2.30894 2.30992 0.666992 4.33496 0.666992H25.668ZM4.33496 2.66699C3.41449 2.66699 2.66797 3.41351 2.66797 4.33398V17.667C2.66814 18.5873 3.41459 19.334 4.33496 19.334H25.668C26.5882 19.3338 27.3348 18.5872 27.335 17.667V4.33398C27.335 3.41361 26.5883 2.66716 25.668 2.66699H4.33496ZM11.001 6C13.0259 6.00018 14.667 7.64206 14.667 9.66699C14.6669 10.6163 14.3058 11.4808 13.7139 12.1318C13.7729 12.17 13.8331 12.2063 13.8906 12.2471C14.7354 12.8454 15.3742 13.6914 15.7178 14.668C15.9009 15.1888 15.6272 15.76 15.1064 15.9434C14.5856 16.1266 14.0145 15.8527 13.8311 15.332C13.6249 14.7461 13.2412 14.2379 12.7344 13.8789C12.2526 13.5378 11.6814 13.3481 11.0928 13.3301C11.0624 13.3308 11.0316 13.333 11.001 13.333C10.9699 13.333 10.939 13.3308 10.9082 13.3301C10.3197 13.3483 9.7482 13.5378 9.2666 13.8789C8.7598 14.2379 8.37704 14.7462 8.1709 15.332C7.98749 15.8528 7.41637 16.1266 6.89551 15.9434C6.3747 15.76 6.10097 15.1889 6.28418 14.668C6.62776 13.6914 7.26652 12.8454 8.11133 12.2471C8.16861 12.2065 8.22836 12.1698 8.28711 12.1318C7.69526 11.4808 7.33407 10.6161 7.33398 9.66699C7.33398 7.64205 8.97607 6.00016 11.001 6ZM23.001 12.667C23.5531 12.6672 24.001 13.1148 24.001 13.667C24.0008 14.219 23.553 14.6668 23.001 14.667H20.334C19.7819 14.6668 19.3342 14.219 19.334 13.667C19.334 13.1148 19.7818 12.6672 20.334 12.667H23.001ZM11.001 8C10.0806 8.00016 9.33398 8.74662 9.33398 9.66699C9.33416 10.5656 10.0462 11.295 10.9365 11.3291C10.958 11.3288 10.9795 11.3271 11.001 11.3271C11.0221 11.3271 11.0433 11.3288 11.0645 11.3291C11.9553 11.2957 12.6668 10.566 12.667 9.66699C12.667 8.74663 11.9213 8.00018 11.001 8ZM23.001 7.33301C23.553 7.33318 24.0008 7.78098 24.001 8.33301C24.001 8.88518 23.5531 9.33283 23.001 9.33301H20.334C19.7818 9.33284 19.334 8.88519 19.334 8.33301C19.3342 7.78097 19.7819 7.33317 20.334 7.33301H23.001Z" fill="#F5F5F5"/>
</svg>
