<svg width="30" height="26" viewBox="0 0 30 26" fill="none" xmlns="http://www.w3.org/2000/svg">
<path d="M9.5 0C11.1797 1.26283e-07 12.7908 0.667738 13.9785 1.85547C14.3038 2.18076 14.5889 2.53844 14.833 2.91992C15.0772 2.53827 15.3631 2.18089 15.6885 1.85547C16.8762 0.667738 18.4873 0 20.167 0H26.833C27.4518 0 28.0458 0.246008 28.4834 0.683594C28.9208 1.12109 29.1669 1.71437 29.167 2.33301V5C29.167 5.55218 28.7191 5.99982 28.167 6C27.6147 6 27.167 5.55228 27.167 5V2.33301C27.1669 2.24479 27.1317 2.16007 27.0693 2.09766C27.0068 2.03514 26.9214 2 26.833 2H20.167C19.0177 2 17.9152 2.45687 17.1025 3.26953C16.2901 4.0821 15.8331 5.18393 15.833 6.33301V21.001C16.6934 20.3554 17.7448 20.0001 18.833 20H26.833C26.9214 20 27.0068 19.9649 27.0693 19.9023C27.1317 19.8399 27.1669 19.7552 27.167 19.667V17.9336C27.167 17.3813 27.6147 16.9336 28.167 16.9336C28.7191 16.9338 29.167 17.3814 29.167 17.9336V19.667C29.1669 20.2856 28.9208 20.8789 28.4834 21.3164C28.0458 21.754 27.4518 22 26.833 22H18.833C18.0375 22.0001 17.2744 22.3164 16.7119 22.8789C16.1494 23.4415 15.833 24.2044 15.833 25C15.8329 25.276 15.7209 25.5261 15.54 25.707C15.5174 25.7297 15.4935 25.7511 15.4688 25.7715C15.4442 25.7917 15.419 25.8112 15.3926 25.8291C15.286 25.9012 15.1646 25.9528 15.0342 25.9795C14.9692 25.9928 14.9019 26 14.833 26C14.488 26 14.1836 25.8255 14.0039 25.5596C13.9679 25.5063 13.9365 25.4495 13.9111 25.3896C13.8605 25.27 13.8331 25.138 13.833 25C13.833 24.2045 13.5175 23.4415 12.9551 22.8789C12.3925 22.3163 11.6287 22 10.833 22H2.83301C2.21429 21.9999 1.6211 21.7539 1.18359 21.3164C0.746085 20.8789 0.500086 20.2857 0.5 19.667V2.33301C0.500086 1.71429 0.746086 1.1211 1.18359 0.683594C1.6211 0.246085 2.21429 8.61712e-05 2.83301 0H9.5ZM2.83301 2C2.74472 2.00009 2.66009 2.03522 2.59766 2.09766C2.53522 2.16009 2.50009 2.24472 2.5 2.33301V19.667C2.50009 19.7553 2.53522 19.8399 2.59766 19.9023C2.66009 19.9648 2.74472 19.9999 2.83301 20H10.833C11.9209 20 12.9726 20.3548 13.833 21V6.33301C13.8329 5.18401 13.3768 4.08208 12.5645 3.26953C11.7518 2.45687 10.6493 2 9.5 2H2.83301ZM27.459 9.62598C27.8495 9.23562 28.4826 9.23551 28.873 9.62598C29.2635 10.0164 29.2634 10.6495 28.873 11.04L23.54 16.373C23.1495 16.7636 22.5165 16.7636 22.126 16.373L19.459 13.707C19.0685 13.3166 19.0686 12.6835 19.459 12.293C19.8495 11.9026 20.4826 11.9025 20.873 12.293L22.832 14.252L27.459 9.62598Z" fill="#F5F5F5"/>
</svg>
