<svg width="32" height="32" viewBox="0 0 32 32" fill="none" xmlns="http://www.w3.org/2000/svg">
<path d="M19.0234 1.7627C19.7755 1.6131 20.5523 1.63853 21.293 1.83691C22.0338 2.03542 22.7193 2.4025 23.2959 2.9082C23.8724 3.41387 24.3247 4.04541 24.6182 4.75391C24.7966 5.18484 24.912 5.6372 24.9648 6.09766C25.6208 6.35327 26.2316 6.71639 26.7705 7.1748C27.5022 7.79728 28.0834 8.57805 28.4688 9.45801C28.854 10.338 29.034 11.295 28.9951 12.2549C28.9668 12.9517 28.8219 13.6371 28.5713 14.2842C29.1118 14.8484 29.5466 15.5117 29.8496 16.2432C30.3831 17.5311 30.477 18.9591 30.1162 20.3057C29.7554 21.6523 28.9605 22.8427 27.8545 23.6914C27.7919 23.7394 27.7282 23.7856 27.6641 23.8311C27.6808 24.4765 27.5991 25.1222 27.4199 25.7451C27.1806 26.577 26.7727 27.3512 26.2227 28.0195C25.6726 28.6877 24.991 29.2362 24.2207 29.6309C23.4503 30.0255 22.6069 30.2584 21.7432 30.3145C20.8794 30.3705 20.0131 30.2487 19.1982 29.957C18.3832 29.6652 17.6368 29.2088 17.0049 28.6172C16.6197 28.2566 16.282 27.8504 15.999 27.4082C15.7162 27.8499 15.3799 28.2569 14.9951 28.6172C14.3633 29.2087 13.6165 29.6652 12.8018 29.957C11.9868 30.2488 11.1196 30.3705 10.2559 30.3145C9.39217 30.2584 8.54865 30.0255 7.77832 29.6309C7.00799 29.2362 6.32648 28.6878 5.77637 28.0195C5.22623 27.3512 4.81939 26.577 4.58008 25.7451C4.40087 25.1221 4.31823 24.4766 4.33496 23.8311C4.27073 23.7855 4.20622 23.7395 4.14355 23.6914C3.03768 22.8427 2.24264 21.6522 1.88184 20.3057C1.52111 18.9591 1.615 17.5311 2.14844 16.2432C2.45129 15.512 2.88655 14.8493 3.42676 14.2852C3.17596 13.6378 3.03124 12.9519 3.00293 12.2549C2.96408 11.295 3.14404 10.338 3.5293 9.45801C3.91464 8.578 4.49585 7.79733 5.22754 7.1748C5.76614 6.71662 6.37666 6.35331 7.03223 6.09766C7.08506 5.63722 7.20147 5.18482 7.37988 4.75391C7.67326 4.04559 8.12584 3.41381 8.70215 2.9082C9.27865 2.40261 9.96443 2.03545 10.7051 1.83691C11.4457 1.6385 12.2226 1.61314 12.9746 1.7627C13.7268 1.91233 14.4345 2.23331 15.043 2.7002C15.4058 2.97859 15.7265 3.30532 15.999 3.66895C16.2715 3.30547 16.5925 2.97852 16.9551 2.7002C17.5634 2.23339 18.2714 1.91237 19.0234 1.7627ZM12.584 3.72461C12.1328 3.63497 11.6669 3.65048 11.2227 3.76953C10.7783 3.88866 10.3664 4.10782 10.0205 4.41113C9.67489 4.71437 9.40355 5.09379 9.22754 5.51855C9.0516 5.94356 8.97576 6.40427 9.00586 6.86328C9.03603 7.32233 9.17133 7.7686 9.40137 8.16699C9.67736 8.64522 9.51333 9.25706 9.03516 9.5332C8.557 9.80896 7.94507 9.64499 7.66895 9.16699C7.49227 8.86098 7.35109 8.53719 7.24316 8.20312C6.98818 8.34346 6.74649 8.5085 6.52344 8.69824C6.02285 9.12418 5.62496 9.65865 5.36133 10.2607C5.09786 10.8627 4.9754 11.5173 5.00195 12.1738C5.01425 12.4766 5.05956 12.7764 5.13379 13.0684C5.54339 12.9854 5.97762 13.1661 6.19824 13.5479C6.47441 14.0261 6.31031 14.6379 5.83203 14.9141C5.00626 15.391 4.36103 16.1277 3.99609 17.0088C3.63123 17.8899 3.56672 18.8669 3.81348 19.7881C4.06033 20.7094 4.60472 21.5238 5.36133 22.1045C6.11796 22.6851 7.04532 22.9999 7.99902 23C8.55123 23 8.99893 23.4478 8.99902 24C8.99894 24.5522 8.55127 25 7.99902 25C7.45875 24.9999 6.92458 24.9299 6.4082 24.7959C6.43326 24.9292 6.46432 25.0616 6.50195 25.1924C6.66566 25.7614 6.94407 26.2909 7.32031 26.748C7.6967 27.2053 8.16338 27.5805 8.69043 27.8506C9.21755 28.1206 9.79473 28.28 10.3857 28.3184C10.9766 28.3567 11.5695 28.2738 12.127 28.0742C12.6845 27.8745 13.1956 27.562 13.6279 27.1572C14.06 26.7526 14.4048 26.2636 14.6406 25.7207C14.8749 25.1811 14.9968 24.599 14.999 24.0107V16.7129C14.2377 17.4486 13.3052 17.9931 12.2793 18.293C11.7495 18.4475 11.1941 18.144 11.0391 17.6143C10.8843 17.0843 11.1889 16.5281 11.7188 16.373C12.6646 16.0965 13.4956 15.5208 14.0869 14.7324C14.6783 13.9439 14.9984 12.9847 14.999 11.999V6.66699C14.999 6.20694 14.8929 5.75248 14.6895 5.33984C14.4859 4.92728 14.1902 4.56717 13.8252 4.28711C13.4601 4.00699 13.0353 3.81438 12.584 3.72461ZM20.7754 3.76953C20.3311 3.65052 19.8652 3.63492 19.4141 3.72461C18.9629 3.81442 18.5378 4.00707 18.1729 4.28711C17.8081 4.56712 17.512 4.92745 17.3086 5.33984C17.1053 5.7524 16.999 6.20705 16.999 6.66699V11.999C16.9996 12.9846 17.3199 13.9439 17.9111 14.7324C18.5024 15.5208 19.3335 16.0964 20.2793 16.373C20.8094 16.528 21.1139 17.0842 20.959 17.6143C20.8039 18.1441 20.2487 18.4477 19.7188 18.293C18.6926 17.9929 17.7604 17.448 16.999 16.7119L17 23.999C17.0007 24.5912 17.1225 25.1775 17.3584 25.7207C17.5943 26.2637 17.939 26.7526 18.3711 27.1572C18.8035 27.562 19.3145 27.8746 19.8721 28.0742C20.4296 28.2738 21.0224 28.3567 21.6133 28.3184C22.2042 28.28 22.7815 28.1206 23.3086 27.8506C23.8356 27.5805 24.3023 27.2053 24.6787 26.748C25.0549 26.2909 25.3334 25.7613 25.4971 25.1924C25.5347 25.0616 25.5647 24.9291 25.5898 24.7959C25.0736 24.9298 24.5392 25 23.999 25C23.447 24.9998 22.9991 24.5521 22.999 24C22.9991 23.448 23.447 23.0003 23.999 23C24.9528 22.9999 25.88 22.685 26.6367 22.1045C27.3935 21.5238 27.9377 20.7095 28.1846 19.7881C28.4314 18.8668 28.3668 17.89 28.002 17.0088C27.637 16.1278 26.9918 15.391 26.166 14.9141C25.6881 14.6378 25.5237 14.026 25.7998 13.5479C26.0202 13.1661 26.4547 12.9857 26.8643 13.0684C26.9387 12.7764 26.9848 12.4767 26.9971 12.1738C27.0236 11.5172 26.9002 10.8628 26.6367 10.2607C26.3731 9.65866 25.9752 9.12416 25.4746 8.69824C25.2516 8.50858 25.0097 8.34437 24.7549 8.2041C24.647 8.53777 24.5056 8.86132 24.3291 9.16699C24.0528 9.6449 23.441 9.80928 22.9629 9.5332C22.4849 9.2571 22.321 8.64514 22.5967 8.16699C22.8267 7.76861 22.962 7.32231 22.9922 6.86328C23.0223 6.40418 22.9465 5.94364 22.7705 5.51855C22.5944 5.09362 22.3234 4.71443 21.9775 4.41113C21.6316 4.10771 21.2199 3.88863 20.7754 3.76953Z" fill="#F5F5F5"/>
</svg>
