<svg width="21" height="23" viewBox="0 0 21 23" fill="none" xmlns="http://www.w3.org/2000/svg">
<path d="M7.91504 0.492188C8.44821 0.481074 8.97893 0.576724 9.47461 0.773438C9.9702 0.970158 10.4214 1.26405 10.8018 1.6377C11.1821 2.01133 11.4839 2.45726 11.6895 2.94922C11.8946 3.44034 12.0002 3.96778 11.999 4.5V6.5H13.999V4.5C13.999 3.70439 14.3154 2.94151 14.8779 2.37891C15.1095 2.1473 15.3763 1.95965 15.6641 1.81641C15.9127 1.33177 16.4169 1.00002 16.999 1C17.8274 1 18.499 1.67157 18.499 2.5C18.499 3.32838 17.8274 4 16.999 4C16.7357 3.99999 16.4885 3.93165 16.2734 3.8125C16.0977 3.99798 15.999 4.24382 15.999 4.5V6.5H17.8838C18.1584 6.1939 18.5554 6.00002 18.999 6C19.8274 6 20.499 6.67157 20.499 7.5C20.499 8.32838 19.8274 9 18.999 9C18.5555 8.99998 18.1584 8.80603 17.8838 8.5H11.999V11.5H13.8838C14.1584 11.1939 14.5554 11 14.999 11C15.8275 11 16.499 11.6716 16.499 12.5C16.499 13.3284 15.8274 14 14.999 14C14.5555 14 14.1584 13.806 13.8838 13.5H11.999V16.5H16.999C17.7947 16.5 18.5575 16.8163 19.1201 17.3789C19.6541 17.9129 19.9618 18.6273 19.9922 19.3789C20.3021 19.6537 20.499 20.0532 20.499 20.5C20.499 21.3284 19.8274 22 18.999 22C18.1707 22 17.4991 21.3284 17.499 20.5C17.499 20.0595 17.6898 19.6641 17.9922 19.3896C17.9672 19.1651 17.8674 18.9543 17.7061 18.793C17.5185 18.6054 17.2642 18.5 16.999 18.5H11.8965C11.8271 18.838 11.7231 19.1692 11.585 19.4873C11.3128 20.114 10.9148 20.6785 10.416 21.1455C9.9172 21.6125 9.32785 21.9728 8.68457 22.2031C8.04119 22.4335 7.35674 22.5296 6.6748 22.4854C5.99294 22.4411 5.3269 22.2578 4.71875 21.9463C4.11064 21.6347 3.57297 21.2013 3.13867 20.6738C2.70435 20.1462 2.3823 19.5347 2.19336 18.8779C2.06425 18.429 2.00041 17.965 2 17.5C1.5239 17.1432 1.11326 16.7038 0.790039 16.2002C0.35009 15.5147 0.0841601 14.7316 0.015625 13.9199C-0.0528282 13.1084 0.078752 12.2924 0.397461 11.543C0.614143 11.0336 0.914411 10.5662 1.28223 10.1572C1.11795 9.69003 1.02221 9.19985 1.00195 8.70215C0.971171 7.94425 1.11383 7.18902 1.41797 6.49414C1.72217 5.79926 2.18008 5.18198 2.75781 4.69043C3.14436 4.36159 3.57855 4.09581 4.04297 3.89844C4.08345 3.62826 4.15191 3.36202 4.24707 3.10449C4.4319 2.60443 4.71471 2.14599 5.0791 1.75684C5.44361 1.36765 5.88313 1.05509 6.37012 0.837891C6.85688 0.620878 7.38221 0.503374 7.91504 0.492188ZM7.95703 2.49121C7.69057 2.4968 7.42799 2.5565 7.18457 2.66504C6.94111 2.77364 6.72129 2.92945 6.53906 3.12402C6.35689 3.31858 6.21545 3.54785 6.12305 3.79785C6.03071 4.04779 5.98914 4.3139 6.00098 4.58008C6.00103 4.5813 6.00093 4.58276 6.00098 4.58398C6.01419 4.90639 6.10553 5.22137 6.2666 5.50098C6.54192 5.97936 6.37758 6.5905 5.89941 6.86621C5.42094 7.14182 4.80894 6.9774 4.5332 6.49902C4.44496 6.34582 4.36765 6.18697 4.30078 6.02441C4.21537 6.08294 4.13293 6.14648 4.05371 6.21387C3.70718 6.50875 3.4325 6.87908 3.25 7.2959C3.06752 7.71282 2.98153 8.16636 3 8.62109C3.00519 8.74846 3.01879 8.87498 3.04004 9C3.39832 8.99294 3.74847 9.17953 3.93457 9.51465C4.2024 9.99746 4.0286 10.606 3.5459 10.874C3.39138 10.9598 3.24447 11.0593 3.10742 11.1709C3.10541 11.1725 3.10261 11.1732 3.10059 11.1748C2.72393 11.4823 2.42768 11.8777 2.2373 12.3252C2.04606 12.7749 1.96769 13.265 2.00879 13.752C2.04992 14.2389 2.20968 14.7088 2.47363 15.1201C2.7376 15.5313 3.09791 15.8721 3.52344 16.1123C3.52548 16.1135 3.52727 16.115 3.5293 16.1162C3.97802 16.368 4.48441 16.5002 4.99902 16.5C5.55119 16.4999 5.99877 16.9478 5.99902 17.5C5.99901 18.052 5.55198 18.4996 5 18.5C4.71273 18.5001 4.42753 18.4723 4.14648 18.4238C4.26243 18.7803 4.44399 19.1124 4.68262 19.4023C4.94321 19.7189 5.26595 19.9791 5.63086 20.166C5.99578 20.353 6.39553 20.4627 6.80469 20.4893C7.21366 20.5158 7.62389 20.4584 8.00977 20.3203C8.39573 20.1821 8.74953 19.9657 9.04883 19.6855C9.34811 19.4054 9.58764 19.0665 9.75098 18.6904C9.91403 18.3148 9.99842 17.9095 9.99902 17.5V12.499C9.50453 12.9062 8.9417 13.2285 8.33105 13.4434C7.81021 13.6264 7.23896 13.3528 7.05566 12.832C6.87249 12.3112 7.14634 11.7401 7.66699 11.5566C8.31977 11.327 8.89037 10.909 9.30566 10.3555C9.71666 9.80747 9.95751 9.15023 9.99902 8.4668V4.49707C9.9998 4.23066 9.94733 3.96656 9.84473 3.7207C9.74196 3.47469 9.59058 3.25129 9.40039 3.06445C9.21016 2.8776 8.98417 2.7302 8.73633 2.63184C8.48861 2.53359 8.22346 2.48566 7.95703 2.49121Z" fill="#F5F5F5"/>
</svg>
