<svg width="32" height="32" viewBox="0 0 32 32" fill="none" xmlns="http://www.w3.org/2000/svg">
<path d="M26.668 11C27.6403 11.0001 28.5732 11.3867 29.2607 12.0742C29.9482 12.7618 30.335 13.6947 30.335 14.667V28.3818C30.3348 28.7666 30.2205 29.143 30.0068 29.4629C29.793 29.7829 29.4884 30.0324 29.1328 30.1797C28.7773 30.3269 28.3853 30.365 28.0078 30.29C27.6777 30.2243 27.371 30.0742 27.1172 29.8555L27.0117 29.7578L24.0752 26.8213C23.7629 26.5091 23.339 26.3333 22.8975 26.333H13.335C12.3627 26.333 11.4298 25.9471 10.7422 25.2598C10.0546 24.5722 9.66805 23.6393 9.66797 22.667V21.333C9.66815 20.7809 10.1158 20.333 10.668 20.333C11.22 20.3332 11.6678 20.781 11.668 21.333V22.667C11.6681 23.1088 11.8439 23.5323 12.1562 23.8447C12.4688 24.1572 12.893 24.333 13.335 24.333H22.8975L23.0791 24.3379C23.9852 24.3831 24.8458 24.7626 25.4902 25.4072L28.335 28.2529V14.667C28.335 14.2251 28.159 13.8008 27.8467 13.4883C27.5731 13.2147 27.2137 13.0457 26.832 13.0078L26.5654 12.9951C26.0611 12.944 25.668 12.5178 25.668 12C25.668 11.4477 26.1157 11 26.668 11ZM18.668 1.66699C19.6403 1.66709 20.5732 2.05366 21.2607 2.74121C21.9481 3.42879 22.335 4.36177 22.335 5.33398V13.334C22.3348 14.3062 21.9482 15.2393 21.2607 15.9268C20.5732 16.6142 19.6402 16.9999 18.668 17H9.10547C8.6635 17.0001 8.23923 17.1757 7.92676 17.4883L4.99121 20.4248C4.71904 20.6969 4.37161 20.8819 3.99414 20.957C3.61686 21.032 3.22555 20.9937 2.87012 20.8467C2.5146 20.6994 2.20998 20.4498 1.99609 20.1299C1.78232 19.81 1.66816 19.4336 1.66797 19.0488V5.33398C1.66797 4.36152 2.05455 3.42884 2.74219 2.74121C3.42982 2.05359 4.36251 1.66699 5.33496 1.66699H18.668ZM5.33496 3.66699C4.89294 3.66699 4.46881 3.84272 4.15625 4.15527C3.84369 4.46783 3.66797 4.89196 3.66797 5.33398V18.9189L6.5127 16.0742C7.20015 15.3867 8.13318 15.0002 9.10547 15H18.668C19.1099 14.9999 19.5342 14.8242 19.8467 14.5117C20.1589 14.1993 20.3348 13.7756 20.335 13.334V5.33398C20.335 4.8922 20.1589 4.46779 19.8467 4.15527C19.5342 3.8428 19.1099 3.66709 18.668 3.66699H5.33496Z" fill="#F5F5F5"/>
</svg>
