<svg width="22" height="22" viewBox="0 0 22 22" fill="none" xmlns="http://www.w3.org/2000/svg">
<path d="M11.2031 0.34082C11.6762 0.372923 12.1358 0.517637 12.5439 0.762695L12.5449 0.761719L15.5449 2.5625L15.707 2.66699C16.0773 2.92323 16.3863 3.26026 16.6094 3.65332C16.8641 4.10245 16.9987 4.6106 17 5.12695V8.93359L20.5449 11.0625C20.9878 11.3286 21.3545 11.7049 21.6094 12.1543C21.8643 12.6037 21.9989 13.1113 22 13.6279V16.8721C21.9989 17.3887 21.8643 17.8963 21.6094 18.3457C21.3863 18.739 21.0774 19.0757 20.707 19.332L20.5449 19.4375L17.5449 21.2373C17.1133 21.4966 16.6239 21.6406 16.1221 21.6611C16.082 21.666 16.0414 21.6699 16 21.6699C15.9583 21.6699 15.9173 21.6661 15.877 21.6611C15.3755 21.6405 14.8864 21.4964 14.4551 21.2373V21.2363L10.999 19.165L7.54395 21.2363L7.54492 21.2373C7.11332 21.4966 6.62386 21.6406 6.12207 21.6611C6.08201 21.666 6.04138 21.6699 6 21.6699C5.96032 21.6699 5.92129 21.6666 5.88281 21.6621C5.44701 21.645 5.02042 21.5344 4.63281 21.3359L4.45508 21.2373L1.45508 19.4375C1.01221 19.1714 0.645535 18.7951 0.390625 18.3457C0.135738 17.8963 0.00113224 17.3887 0 16.8721V13.6279L0.00683594 13.4346C0.0368335 12.9852 0.167605 12.5475 0.390625 12.1543C0.645536 11.7049 1.01222 11.3286 1.45508 11.0625L5 8.93359V5.12695L5.00684 4.93457C5.03683 4.48517 5.16758 4.04652 5.39062 3.65332C5.64552 3.20424 6.01244 2.82844 6.45508 2.5625L9.45508 0.761719V0.762695C9.92163 0.482433 10.4557 0.333984 11 0.333984L11.2031 0.34082ZM2 16.8682L2.00879 16.9961C2.02554 17.1234 2.06615 17.247 2.12988 17.3594C2.21485 17.5091 2.33778 17.634 2.48535 17.7227H2.48438L5 19.2314V16.0645L2 14.2617V16.8682ZM7 16.0654V19.2314L10 17.4326V14.2656L7 16.0654ZM12 17.4326L15 19.2314V16.0654L12 14.2656V17.4326ZM17 16.0654V19.2314L19.5146 17.7227C19.6622 17.634 19.7851 17.5091 19.8701 17.3594C19.9547 17.2103 19.9992 17.0415 20 16.8701V14.2617L17 16.0654ZM2.94824 12.4971L6 14.333L9.05566 12.499L6 10.666L2.94824 12.4971ZM12.9434 12.499L15.999 14.333L19.0508 12.498L15.999 10.666L12.9434 12.499ZM7 8.93359L10 10.7324V7.56543L7 5.76172V8.93359ZM12 7.56543V10.7314L15 8.93359V5.76172L12 7.56543ZM11 2.33398C10.8188 2.33398 10.6408 2.38333 10.4854 2.47656L10.4844 2.47754L7.94922 3.99805L11 5.83301L14.0508 3.99805L11.5156 2.47754L11.5146 2.47656C11.3592 2.38333 11.1812 2.33398 11 2.33398Z" fill="currentColor"/>
</svg>
