<svg width="14" height="14" viewBox="0 0 14 14" fill="none" xmlns="http://www.w3.org/2000/svg">
<path d="M12.293 0.29306C12.6835 -0.0974412 13.3165 -0.0974564 13.707 0.29306C14.0974 0.683587 14.0975 1.31664 13.707 1.70712L8.41406 7.00009L13.707 12.2931C14.0974 12.6836 14.0975 13.3166 13.707 13.7071C13.3165 14.0976 12.6835 14.0975 12.293 13.7071L7 8.41415L1.70703 13.7071C1.31655 14.0976 0.683503 14.0975 0.292969 13.7071C-0.0975555 13.3166 -0.0975555 12.6836 0.292969 12.2931L5.58594 7.00009L0.292969 1.70712C-0.0975555 1.3166 -0.0975555 0.683585 0.292969 0.29306C0.683495 -0.0974411 1.31651 -0.0974564 1.70703 0.29306L7 5.58603L12.293 0.29306Z" fill="#F5F5F5"/>
</svg>
