<svg width="29" height="28" viewBox="0 0 29 28" fill="none" xmlns="http://www.w3.org/2000/svg">
<path d="M21.166 0C21.7352 0 22.2975 0.132183 22.8066 0.386719C23.3157 0.641272 23.7581 1.01149 24.0996 1.4668L28.0996 6.7998C28.5548 7.40697 28.8079 8.14021 28.8291 8.89746C28.8325 8.93116 28.834 8.96539 28.834 9C28.834 9.01739 28.8319 9.03459 28.8311 9.05176C28.8202 9.81262 28.5745 10.5522 28.124 11.167L17.4727 25.8125L17.4717 25.8115C17.1324 26.2817 16.6869 26.6653 16.1709 26.9297C15.6537 27.1946 15.0811 27.3319 14.5 27.332V27.333L14.499 27.332V27.333C13.9176 27.333 13.3446 27.1948 12.8271 26.9297C12.311 26.6651 11.8647 26.2819 11.5254 25.8115L0.874023 11.167L0.709961 10.9229C0.351455 10.3404 0.162058 9.66728 0.166016 8.97949C0.170637 8.1932 0.428444 7.42873 0.900391 6.7998L4.89746 1.4707C5.23861 1.01459 5.68123 0.643927 6.19043 0.388672C6.70023 0.133145 7.26275 8.88969e-05 7.83301 0H21.166ZM2.49902 10L12.7764 24.1318L8.42773 10H2.49902ZM20.5723 10L16.2246 24.127L26.5 10H20.5723ZM10.5205 10L14.5 22.9326L18.4795 10H10.5205ZM7.63965 2.01172C7.44771 2.03421 7.26057 2.08975 7.08691 2.17676C6.85522 2.29291 6.65317 2.46132 6.49805 2.66895L6.49707 2.6709L2.5 8H8.5L11 2H7.83301L7.63965 2.01172ZM10.666 8H18.333L15.833 2H13.167L10.666 8ZM20.501 8H26.5L22.5 2.66699C22.3448 2.46008 22.1434 2.29148 21.9121 2.17578C21.6807 2.0601 21.4247 2 21.166 2H18.001L20.501 8Z" fill="#F5F5F5"/>
</svg>
