<svg width="30" height="30" viewBox="0 0 30 30" fill="none" xmlns="http://www.w3.org/2000/svg">
<path d="M25.832 10C26.8044 10.0001 27.7373 10.3867 28.4248 11.0742C29.1122 11.7618 29.499 12.6947 29.499 13.667V27.3818C29.4989 27.7666 29.3846 28.143 29.1709 28.4629C28.9571 28.7829 28.6524 29.0324 28.2969 29.1797C27.9413 29.3269 27.5493 29.365 27.1719 29.29C26.8417 29.2243 26.535 29.0742 26.2812 28.8555L26.1758 28.7578L23.2393 25.8213C22.927 25.5091 22.5031 25.3333 22.0615 25.333H12.499C11.5268 25.333 10.5938 24.9471 9.90625 24.2598C9.21869 23.5722 8.83212 22.6393 8.83203 21.667V20.333C8.83221 19.7809 9.27985 19.333 9.83203 19.333C10.384 19.3332 10.8319 19.781 10.832 20.333V21.667C10.8321 22.1088 11.0079 22.5323 11.3203 22.8447C11.6329 23.1572 12.0571 23.333 12.499 23.333H22.0615L22.2432 23.3379C23.1493 23.3831 24.0098 23.7626 24.6543 24.4072L27.499 27.2529V13.667C27.499 13.2251 27.3231 12.8008 27.0107 12.4883C26.7372 12.2147 26.3778 12.0457 25.9961 12.0078L25.7295 11.9951C25.2252 11.944 24.832 11.5178 24.832 11C24.832 10.4477 25.2797 10 25.832 10ZM17.832 0.666992C18.8044 0.667089 19.7373 1.05366 20.4248 1.74121C21.1121 2.42879 21.499 3.36177 21.499 4.33398V12.334C21.4988 13.3062 21.1123 14.2393 20.4248 14.9268C19.7373 15.6142 18.8043 15.9999 17.832 16H8.26953C7.82756 16.0001 7.4033 16.1757 7.09082 16.4883L4.15527 19.4248C3.8831 19.6969 3.53568 19.8819 3.1582 19.957C2.78092 20.032 2.38961 19.9937 2.03418 19.8467C1.67866 19.6994 1.37405 19.4498 1.16016 19.1299C0.946382 18.81 0.832221 18.4336 0.832031 18.0488V4.33398C0.832031 3.36152 1.21862 2.42884 1.90625 1.74121C2.59388 1.05359 3.52657 0.666992 4.49902 0.666992H17.832ZM4.49902 2.66699C4.057 2.66699 3.63287 2.84272 3.32031 3.15527C3.00775 3.46783 2.83203 3.89196 2.83203 4.33398V17.9189L5.67676 15.0742C6.36421 14.3867 7.29725 14.0002 8.26953 14H17.832C18.2739 13.9999 18.6983 13.8242 19.0107 13.5117C19.3229 13.1993 19.4988 12.7756 19.499 12.334V4.33398C19.499 3.8922 19.323 3.46779 19.0107 3.15527C18.6983 2.8428 18.2739 2.66709 17.832 2.66699H4.49902Z" fill="#F5F5F5"/>
</svg>
