<svg width="27" height="30" viewBox="0 0 27 30" fill="none" xmlns="http://www.w3.org/2000/svg">
<path d="M13.5 0.666992C15.2071 0.666992 16.8975 1.00303 18.4746 1.65625C20.0518 2.30956 21.4852 3.26747 22.6924 4.47461C23.8995 5.68175 24.8575 7.1152 25.5107 8.69238C26.1639 10.2695 26.5 11.96 26.5 13.667V23C26.4999 24.6795 25.8321 26.2899 24.6445 27.4775C23.4569 28.6652 21.8466 29.3329 20.167 29.333H13.5C12.9477 29.333 12.5 28.8853 12.5 28.333C12.5001 27.7808 12.9478 27.333 13.5 27.333H20.167C21.3161 27.3329 22.4179 26.8761 23.2305 26.0635C23.8954 25.3985 24.321 24.5399 24.4541 23.6201C23.9542 23.8665 23.4008 24 22.833 24H21.5C20.5277 24 19.5948 23.6142 18.9072 22.9268C18.2197 22.2393 17.8332 21.3062 17.833 20.334V16.334C17.833 15.3617 18.2198 14.4288 18.9072 13.7412C19.5949 13.0536 20.5275 12.667 21.5 12.667H24.4531C24.3526 11.5654 24.0878 10.4825 23.6631 9.45703C23.1103 8.1226 22.2996 6.91003 21.2783 5.88867C20.257 4.86731 19.0444 4.0567 17.71 3.50391C16.3754 2.9511 14.9445 2.66699 13.5 2.66699C12.0555 2.66699 10.6246 2.9511 9.29004 3.50391C7.95558 4.0567 6.74304 4.86731 5.72168 5.88867C4.70035 6.91003 3.88969 8.12259 3.33691 9.45703C2.91216 10.4825 2.64745 11.5654 2.54688 12.667H5.5C6.47246 12.667 7.40514 13.0536 8.09277 13.7412C8.78023 14.4288 9.16699 15.3617 9.16699 16.334V20.334C9.16684 21.3062 8.78027 22.2393 8.09277 22.9268C7.40517 23.6142 6.47233 24 5.5 24H4.16699C3.19474 24 2.26181 23.6141 1.57422 22.9268C0.88672 22.2393 0.500151 21.3062 0.5 20.334V13.667C0.5 11.96 0.836097 10.2695 1.48926 8.69238C2.14255 7.1152 3.10051 5.68175 4.30762 4.47461C5.51476 3.26747 6.94819 2.30956 8.52539 1.65625C10.1025 1.00303 11.7929 0.666992 13.5 0.666992ZM2.5 20.334C2.50015 20.7757 2.67596 21.1993 2.98828 21.5117C3.30083 21.8242 3.72502 22 4.16699 22H5.5C5.94197 22 6.36616 21.8242 6.67871 21.5117C6.99093 21.1993 7.16684 20.7757 7.16699 20.334V16.334C7.16699 15.8921 6.99109 15.4678 6.67871 15.1553C6.36615 14.8427 5.94203 14.667 5.5 14.667H2.5V20.334ZM21.5 14.667C21.058 14.667 20.6339 14.8427 20.3213 15.1553C20.0089 15.4678 19.833 15.8921 19.833 16.334V20.334C19.8332 20.7757 20.0091 21.1993 20.3213 21.5117C20.6338 21.8242 21.058 22 21.5 22H22.833C23.275 22 23.6992 21.8242 24.0117 21.5117C24.324 21.1993 24.4998 20.7757 24.5 20.334V14.667H21.5Z" fill="#F5F5F5"/>
</svg>
