<svg width="30" height="25" viewBox="0 0 30 25" fill="none" xmlns="http://www.w3.org/2000/svg">
<path d="M20.1045 6.99678C20.6578 6.99685 21.2056 7.10629 21.7168 7.31807C22.2281 7.52993 22.6927 7.84069 23.084 8.23213L25.5918 10.7409C25.9298 11.079 26.1947 11.4768 26.377 11.9089C27.0087 10.9045 27.333 9.89439 27.333 8.6667C27.3329 7.38547 26.9437 6.13455 26.2178 5.07881C25.4917 4.02297 24.4622 3.21222 23.2656 2.75362C22.0693 2.29513 20.7622 2.20954 19.5166 2.50948C18.2708 2.80956 17.1446 3.48115 16.2881 4.43428C16.2739 4.45004 16.2593 4.46536 16.2441 4.48018L12.4883 8.15499L12.377 8.27706C12.134 8.57363 12 8.94695 12 9.3337C12 9.77557 12.1759 10.1989 12.4883 10.5114C12.8008 10.8238 13.2242 10.9997 13.666 10.9997C14.108 10.9997 14.5322 10.8239 14.8447 10.5114L17.124 8.23213C17.5153 7.84069 17.9799 7.52993 18.4912 7.31807C19.0025 7.10622 19.551 6.99678 20.1045 6.99678ZM2.6709 8.90987C2.77205 11.4028 4.4213 13.3409 6.37305 15.2927H6.37207L13.7422 22.4314L13.7783 22.4685C13.9308 22.6324 14.1149 22.7639 14.3193 22.8552C14.5239 22.9465 14.7448 22.9957 14.9688 22.9997C15.1927 23.0037 15.4154 22.9625 15.623 22.8786C15.8306 22.7948 16.0195 22.6697 16.1777 22.5114C16.347 22.3417 16.4817 22.1402 16.5732 21.9187C16.6648 21.697 16.7112 21.4593 16.7109 21.2194C16.7106 20.9796 16.6634 20.7417 16.5713 20.5202C16.4791 20.2986 16.3439 20.0968 16.1738 19.9274H16.1729C16.1611 19.9148 16.1493 19.9021 16.1377 19.8894C15.7742 19.4873 15.797 18.8688 16.1895 18.4948C16.5819 18.1209 17.2009 18.1279 17.585 18.5105C17.5974 18.5228 17.6089 18.536 17.6211 18.5485L17.7529 18.6794C17.8906 18.8036 18.0466 18.9064 18.2158 18.9841C18.4414 19.0876 18.6855 19.1448 18.9336 19.1511C19.1818 19.1573 19.4296 19.1124 19.6602 19.0202C19.8905 18.9281 20.0999 18.7904 20.2754 18.6149C20.451 18.4394 20.5885 18.2293 20.6807 17.9987C20.7727 17.7682 20.8178 17.5213 20.8115 17.2731C20.8053 17.025 20.7481 16.7809 20.6445 16.5554C20.541 16.3298 20.3931 16.1272 20.209 15.9606H20.208C20.1961 15.9491 20.1836 15.9373 20.1719 15.9255C19.7888 15.542 19.7809 14.923 20.1543 14.53C20.5281 14.1369 21.1474 14.1135 21.5498 14.4773C21.5621 14.4883 21.5738 14.5002 21.5859 14.5114C21.756 14.6815 21.9585 14.8168 22.1807 14.9089C22.4029 15.001 22.6413 15.0485 22.8818 15.0485C23.1224 15.0485 23.3607 15.001 23.583 14.9089C23.8053 14.8168 24.0076 14.6816 24.1777 14.5114C24.4899 14.199 24.665 13.7754 24.665 13.3337C24.665 12.8918 24.4902 12.4675 24.1777 12.155L21.6689 9.6462C21.4634 9.4406 21.2197 9.27701 20.9512 9.16573C20.6827 9.05452 20.395 8.99685 20.1045 8.99678C19.8138 8.99678 19.5254 9.05446 19.2568 9.16573C18.9883 9.27701 18.7446 9.44059 18.5391 9.6462H18.5381L16.2588 11.9265C15.5712 12.6139 14.6383 12.9997 13.666 12.9997C12.6937 12.9997 11.7608 12.6139 11.0732 11.9265V11.9255C10.3861 11.238 10 10.3058 10 9.3337C10 8.36143 10.3858 7.42852 11.0732 6.74092L11.0811 6.73311L13.5762 4.2917C12.7378 3.41502 11.6644 2.7962 10.4824 2.51143C9.23686 2.2114 7.92977 2.29619 6.7334 2.7546C5.53696 3.21304 4.50741 4.0232 3.78125 5.07881C3.05516 6.13437 2.66635 7.38553 2.66602 8.6667L2.6709 8.90987ZM29.333 8.6667C29.333 11.7551 27.7426 13.7757 25.5918 15.9265L25.5908 15.9255C25.2351 16.2812 24.8134 16.564 24.3486 16.7565C23.8837 16.9492 23.3851 17.0485 22.8818 17.0485C22.8548 17.0485 22.8278 17.0462 22.8008 17.0456C22.805 17.1047 22.8091 17.164 22.8105 17.2233C22.8236 17.7425 22.7307 18.2587 22.5381 18.7409C22.3454 19.2233 22.0567 19.6617 21.6895 20.029C21.3222 20.3963 20.8837 20.6849 20.4014 20.8776C19.9191 21.0703 19.4029 21.1631 18.8838 21.1501C18.8254 21.1486 18.7671 21.1454 18.709 21.1413C18.7095 21.1664 18.7109 21.1914 18.7109 21.2165C18.7116 21.7194 18.6129 22.2175 18.4209 22.6823C18.229 23.147 17.948 23.5697 17.5928 23.9255H17.5918C17.2434 24.274 16.828 24.5486 16.3711 24.7331C15.9143 24.9175 15.4252 25.0086 14.9326 24.9997C14.4399 24.9908 13.9539 24.8822 13.5039 24.6814C13.0631 24.4845 12.6654 24.2029 12.334 23.8523L4.9707 16.7185C4.96698 16.7149 4.96265 16.7114 4.95898 16.7077C3.03576 14.7845 0.809937 12.3469 0.672852 8.99385L0.666016 8.6667C0.666353 6.98085 1.17839 5.335 2.13379 3.946C3.08927 2.55697 4.44326 1.48966 6.01758 0.886431C7.59188 0.283214 9.31216 0.172212 10.9512 0.567095C12.4956 0.939204 13.8993 1.74452 14.999 2.88545C16.099 1.74389 17.5028 0.937322 19.0479 0.565142C20.6869 0.170352 22.4072 0.28216 23.9814 0.885455C25.5558 1.48888 26.9108 2.55575 27.8662 3.94502C28.8215 5.33423 29.3329 6.98074 29.333 8.6667Z" fill="currentColor"/>
</svg>
