<svg width="24" height="24" viewBox="0 0 24 24" fill="none" xmlns="http://www.w3.org/2000/svg">
<path d="M12.0127 0.999878C12.6347 1.00763 13.247 1.15595 13.8037 1.43347C14.3606 1.71112 14.8479 2.11112 15.2285 2.60339C15.6091 3.09559 15.8734 3.66752 16.002 4.27625C16.1302 4.88369 16.1189 5.51226 15.9707 6.11511L15.9717 6.11609L15.2715 8.99988H19.8301C20.2958 8.99989 20.7553 9.10802 21.1719 9.31628C21.5884 9.52456 21.951 9.82753 22.2305 10.2001C22.5096 10.5724 22.6979 11.0049 22.7812 11.4628C22.8541 11.8636 22.8447 12.2749 22.7539 12.6708L22.71 12.8397L20.3799 20.8397C20.1981 21.4629 19.8191 22.0108 19.2998 22.4003C18.7806 22.7896 18.149 22.9999 17.5 22.9999H4C3.20435 22.9999 2.44151 22.6836 1.87891 22.121C1.31632 21.5584 1 20.7955 1 19.9999V11.9999C1.00002 11.2043 1.31632 10.4414 1.87891 9.87878C2.44151 9.3162 3.20437 8.99988 4 8.99988H6.75977L6.89844 8.99011C7.03545 8.97081 7.16768 8.92294 7.28613 8.84949C7.44401 8.75151 7.57155 8.61156 7.6543 8.44519L7.65625 8.44226L11.1055 1.55261C11.277 1.21016 11.6297 0.995136 12.0127 0.999878ZM9.44434 9.33777L9.44336 9.33679C9.19497 9.83555 8.8134 10.256 8.33984 10.5497C8.23043 10.6175 8.1164 10.6765 8 10.7294V20.9999H17.5C17.7163 20.9999 17.9265 20.9294 18.0996 20.7997C18.2726 20.6699 18.3994 20.4877 18.46 20.2802L20.79 12.2802L20.8164 12.1669C20.8357 12.0527 20.8343 11.9357 20.8135 11.8212C20.7857 11.6685 20.7229 11.5244 20.6299 11.4003C20.5368 11.2761 20.4162 11.1748 20.2773 11.1053C20.1385 11.0359 19.9853 10.9999 19.8301 10.9999H14C13.6933 10.9999 13.4035 10.8592 13.2139 10.618C13.0243 10.3769 12.956 10.0616 13.0283 9.76355L14.0283 5.64441L14.0293 5.6405C14.1062 5.32894 14.1112 5.00332 14.0449 4.68933C13.9786 4.37559 13.8426 4.08074 13.6465 3.82703C13.4502 3.57315 13.1983 3.3667 12.9111 3.22351C12.8018 3.16902 12.6876 3.1265 12.5713 3.09167L9.44434 9.33777ZM4 10.9999C3.7348 10.9999 3.4805 11.1053 3.29297 11.2928C3.10545 11.4804 3.00002 11.7347 3 11.9999V19.9999C3 20.2651 3.10546 20.5194 3.29297 20.7069C3.48051 20.8944 3.73478 20.9999 4 20.9999H6V10.9999H4Z" fill="#F5F5F5"/>
</svg>
