<svg width="29" height="26" viewBox="0 0 29 26" fill="none" xmlns="http://www.w3.org/2000/svg">
<path d="M8.44629 0.791016C10.6324 0.801077 12.725 1.67953 14.2637 3.23242C15.8013 4.78431 16.6603 6.88285 16.6514 9.06738V16.667C16.6514 16.6955 16.6499 16.7246 16.6475 16.7529C16.5637 17.7286 16.1305 18.6412 15.4277 19.3232C14.7248 20.0053 13.7992 20.4115 12.8213 20.4658C12.768 20.4688 12.7142 20.4675 12.6611 20.4619L11.2324 20.3115V24.667C11.2323 25.2192 10.7847 25.667 10.2324 25.667C9.6804 25.6667 9.2325 25.2191 9.23242 24.667V19.2002C9.23249 18.9169 9.353 18.6466 9.56348 18.457C9.77396 18.2675 10.0553 18.1766 10.3369 18.2061L12.7734 18.4619C13.2469 18.4211 13.6931 18.2204 14.0352 17.8887C14.3852 17.549 14.6027 17.096 14.6514 16.6113V9.0625C14.659 7.40684 14.0081 5.81577 12.8428 4.63965C11.6775 3.46378 10.093 2.79866 8.4375 2.79102C6.78192 2.78345 5.19071 3.43432 4.01465 4.59961C2.83884 5.76488 2.17367 7.34948 2.16602 9.00488C2.16637 10.7795 2.37329 11.684 2.60645 12.3604C2.73506 12.7334 2.86339 13.0199 3.02734 13.4346C3.18206 13.8259 3.33895 14.2652 3.46777 14.8184L3.5293 15.0742C3.81797 16.3559 3.81217 17.6874 3.51172 18.9688L3.5127 18.9697L2.14062 24.8926C2.01592 25.4305 1.47835 25.7661 0.94043 25.6416C0.402582 25.5169 0.0669539 24.9793 0.191406 24.4414L1.56348 18.5186L1.56445 18.5156C1.81202 17.4622 1.80087 16.3644 1.53125 15.3164C1.52911 15.3081 1.52634 15.2994 1.52441 15.291C1.42498 14.8587 1.30392 14.5138 1.16797 14.1699C1.03911 13.844 0.862083 13.4388 0.714844 13.0117C0.396224 12.0874 0.166027 10.9556 0.166016 9V8.99609L0.177734 8.58691C0.288222 6.55026 1.15173 4.62116 2.60742 3.17871C4.1602 1.6402 6.26043 0.781099 8.44629 0.791016ZM24.1963 6.8877C24.5869 6.49756 25.221 6.49835 25.6113 6.88867C27.6718 8.95174 28.8287 11.7493 28.8281 14.665C28.8273 17.5811 27.6683 20.3783 25.6064 22.4404C25.216 22.8307 24.5829 22.8307 24.1924 22.4404C23.8023 22.0499 23.8022 21.4168 24.1924 21.0264C25.8793 19.3392 26.8274 17.0509 26.8281 14.665C26.8287 12.2795 25.882 9.99072 24.1963 8.30273C23.8065 7.91194 23.8057 7.27783 24.1963 6.8877ZM20.4189 10.667C20.8055 10.2729 21.4386 10.267 21.833 10.6533C22.3678 11.1775 22.7931 11.8025 23.085 12.4922C23.3768 13.182 23.5294 13.9228 23.5332 14.6719C23.5369 15.4208 23.3923 16.1638 23.1074 16.8564C22.8225 17.5489 22.4026 18.1786 21.873 18.708C21.4825 19.0979 20.8493 19.0982 20.459 18.708C20.0687 18.3175 20.0687 17.6834 20.459 17.293C20.8016 16.9504 21.0735 16.5428 21.2578 16.0947C21.442 15.6467 21.5356 15.1661 21.5332 14.6816C21.5307 14.1971 21.432 13.7177 21.2432 13.2715C21.0543 12.8252 20.7788 12.4202 20.4326 12.0811C20.0387 11.6946 20.0328 11.0613 20.4189 10.667Z" fill="#F5F5F5"/>
</svg>
