<svg width="20" height="14" viewBox="0 0 20 14" fill="none" xmlns="http://www.w3.org/2000/svg">
<path d="M19 12C19.5523 12 20 12.4477 20 13C20 13.5523 19.5523 14 19 14H1C0.447715 14 0 13.5523 0 13C0 12.4477 0.447715 12 1 12H19ZM19 8C19.5523 8 20 8.44771 20 9C20 9.55229 19.5523 10 19 10H1C0.447715 10 0 9.55229 0 9C0 8.44771 0.447715 8 1 8H19ZM19 4C19.5523 4 20 4.44772 20 5C20 5.55228 19.5523 6 19 6H1C0.447715 6 0 5.55228 0 5C0 4.44772 0.447715 4 1 4H19ZM19 0C19.5523 0 20 0.447715 20 1C20 1.55228 19.5523 2 19 2H1C0.447715 2 0 1.55228 0 1C0 0.447715 0.447715 0 1 0H19Z" fill="#F5F5F5"/>
</svg>
