<svg width="30" height="30" viewBox="0 0 30 30" fill="none" xmlns="http://www.w3.org/2000/svg">
<path d="M19.9999 6.13379C22.6875 6.1339 24.8669 8.31249 24.8671 11C24.8671 11.0987 24.8622 11.1967 24.8564 11.2939C25.0585 11.2655 25.2639 11.2539 25.4706 11.2598C26.4432 11.2874 27.3648 11.7 28.0331 12.4072C28.7013 13.1144 29.0615 14.0577 29.0341 15.0303C29.0066 16.0008 28.595 16.9209 27.8905 17.5889L21.7812 23.4326C20.6346 24.7171 19.0282 25.334 17.3329 25.334H11.9999C11.4118 25.334 11.0903 25.5246 10.9335 25.7334C10.8919 25.7889 10.8441 25.841 10.7919 25.8867L9.46282 27.0479L10.0409 27.626C10.4313 28.0164 10.4311 28.6495 10.0409 29.04C9.65043 29.4306 9.01741 29.4305 8.62688 29.04L7.32414 27.7373C7.30964 27.724 7.296 27.7096 7.28215 27.6953L1.96184 22.375C1.95712 22.3703 1.95184 22.3661 1.94719 22.3613C1.94485 22.3589 1.94266 22.356 1.94035 22.3535L0.626878 21.04C0.236353 20.6495 0.236353 20.0165 0.626878 19.626C1.01743 19.2358 1.65054 19.2356 2.04094 19.626L2.67961 20.2646L9.39934 13.7842C10.0445 12.9877 11.0221 12.6671 11.9999 12.667H15.4267C15.2371 12.147 15.1338 11.5856 15.1337 11C15.134 8.31258 17.3125 6.13404 19.9999 6.13379ZM25.414 13.2588C24.9715 13.2463 24.5414 13.4099 24.2197 13.7139L24.2138 13.7197L23.4765 14.4033C23.3704 14.5117 23.2592 14.6148 23.1435 14.7129L18.6142 18.9199C18.5835 18.9484 18.5506 18.9732 18.5175 18.9971C17.8378 19.6394 16.9378 20 15.9999 20H13.3339C12.7817 20 12.3341 19.5521 12.3339 19C12.3341 18.4479 12.7817 18 13.3339 18H15.9999C16.4419 18 16.8661 17.8242 17.1786 17.5117C17.4909 17.1993 17.6667 16.7757 17.6669 16.334C17.6669 15.892 17.4911 15.4678 17.1786 15.1553C16.8661 14.8427 16.4419 14.667 15.9999 14.667H11.9999C11.4116 14.6671 11.0902 14.8584 10.9335 15.0674C10.9017 15.1098 10.8662 15.1497 10.828 15.1865L4.09367 21.6787L8.04582 25.6309L9.41203 24.4346C10.0573 23.6499 11.0287 23.334 11.9999 23.334H17.3329C18.5525 23.334 19.5966 22.8953 20.3144 22.0752L20.3749 22.0107L26.5087 16.1445L26.5126 16.1406C26.8342 15.8367 27.0224 15.4168 27.0351 14.9746C27.0476 14.5321 26.884 14.102 26.58 13.7803C26.276 13.4586 25.8564 13.2714 25.414 13.2588ZM19.9999 8.13379C18.4171 8.13404 17.134 9.41714 17.1337 11C17.134 12.5829 18.4171 13.8669 19.9999 13.8672C20.6861 13.8671 21.3149 13.624 21.8085 13.2217L22.0644 12.9854C22.5602 12.47 22.867 11.7714 22.8671 11C22.8669 9.41706 21.5829 8.1339 19.9999 8.13379ZM6.66692 0.666992C9.42831 0.667033 11.6669 2.90559 11.6669 5.66699C11.6667 8.42824 9.4282 10.667 6.66692 10.667C3.9056 10.667 1.66709 8.42827 1.66692 5.66699C1.66692 2.90557 3.90549 0.666992 6.66692 0.666992ZM6.66692 2.66699C5.01006 2.66699 3.66692 4.01014 3.66692 5.66699C3.66709 7.3237 5.01017 8.66699 6.66692 8.66699C8.32363 8.66695 9.66674 7.32367 9.66692 5.66699C9.66692 4.01016 8.32374 2.66703 6.66692 2.66699Z" fill="#F5F5F5"/>
</svg>
