<svg width="30" height="30" viewBox="0 0 30 30" fill="none" xmlns="http://www.w3.org/2000/svg">
<path d="M12.3328 0.666992C13.6589 0.667005 14.9303 1.19417 15.8679 2.13184C16.8056 3.06951 17.3328 4.34096 17.3328 5.66699C17.3327 6.63934 16.9461 7.57221 16.2586 8.25977C15.571 8.94716 14.6381 9.33398 13.6658 9.33398C13.2469 9.33395 12.8627 9.29121 12.5095 9.21094C12.324 9.43649 12.16 9.78232 12.0349 10.3076C11.8504 11.0832 11.7923 12.0529 11.7517 13.1621C11.7172 14.1061 11.6947 15.1523 11.5906 16.1328C12.0537 15.9031 12.5397 15.7186 13.0427 15.5859C13.6608 15.4229 14.2951 15.3416 14.9304 15.3359C15.657 13.9991 16.7678 12.9036 18.1267 12.1963C19.6919 11.3818 21.4907 11.132 23.2185 11.4893C24.9464 11.8465 26.4982 12.7889 27.6121 14.1572C28.7257 15.5254 29.3335 17.2359 29.3328 19L29.3279 19.2773C29.1432 25.0615 23.1963 29.334 16.3328 29.334C13.5521 29.334 10.7585 29.0542 8.26736 28.4883C5.79009 27.9255 3.54332 27.0637 1.90994 25.8545H1.90896C1.03235 25.2042 0.658552 24.1788 0.67849 23.2139C0.751026 19.586 0.954591 14.0596 2.4197 9.42285C3.15394 7.09936 4.22925 4.91849 5.83279 3.30859C7.46275 1.67237 9.60112 0.667035 12.3328 0.666992ZM12.3328 2.66699C10.1494 2.66703 8.51638 3.44916 7.24978 4.7207C5.95709 6.01859 5.00924 7.86628 4.32693 10.0254C2.95906 14.3544 2.75033 19.6122 2.67751 23.2549V23.2559C2.66835 23.7034 2.84079 24.0546 3.09939 24.2471C4.4232 25.2271 6.37263 26.0069 8.71072 26.5381C11.0351 27.0661 13.6775 27.334 16.3328 27.334C22.6931 27.334 27.3326 23.3847 27.3328 19L27.3279 18.7559C27.2761 17.5388 26.833 16.3681 26.0613 15.4199C25.238 14.4085 24.0904 13.7123 22.8133 13.4482C21.5362 13.1842 20.2074 13.3687 19.0506 13.9707C18.28 14.3717 17.6177 14.942 17.1082 15.6318C18.005 15.8886 18.8503 16.3042 19.5994 16.8662C20.041 17.1976 20.1308 17.8249 19.7996 18.2666C19.4681 18.7083 18.8409 18.7973 18.3992 18.4658C17.7153 17.9527 16.9238 17.6015 16.0847 17.4375C15.8803 17.3975 15.6742 17.3687 15.4676 17.3516C15.4558 17.3507 15.4441 17.35 15.4324 17.3486C14.8025 17.3002 14.1673 17.3577 13.5535 17.5195C12.7267 17.7376 11.9595 18.1399 11.3103 18.6963C10.6611 19.2528 10.1464 19.9497 9.80447 20.7334C9.58363 21.2393 8.99409 21.4704 8.48806 21.25C7.98206 21.0292 7.74999 20.4397 7.97048 19.9336C8.20889 19.3871 8.51031 18.8725 8.86599 18.3984C9.20934 17.9401 9.43259 17.2303 9.56228 16.2559C9.6908 15.2899 9.71233 14.219 9.75369 13.0889C9.79358 11.9989 9.85271 10.8389 10.0896 9.84375C10.2194 9.29893 10.4167 8.74282 10.7332 8.25488C10.5043 8.02855 10.3167 7.78604 10.1599 7.54395C9.85986 7.08049 9.99258 6.4614 10.4558 6.16113C10.9194 5.86097 11.5385 5.99344 11.8386 6.45703C12.0201 6.7373 12.2113 6.9374 12.4549 7.07617C12.6979 7.21463 13.0669 7.33392 13.6658 7.33398C14.1076 7.33398 14.532 7.15802 14.8445 6.8457C15.157 6.53322 15.3327 6.1089 15.3328 5.66699C15.3328 4.87139 15.0164 4.1085 14.4539 3.5459C13.8913 2.9833 13.1284 2.667 12.3328 2.66699Z" fill="#F5F5F5"/>
</svg>
