<svg width="29" height="30" viewBox="0 0 29 30" fill="none" xmlns="http://www.w3.org/2000/svg">
<path d="M24.0742 0.666016C25.3362 0.666191 26.5472 1.16808 27.4395 2.06055C28.3314 2.95291 28.8321 4.1631 28.832 5.4248C28.8319 6.68679 28.3309 7.89777 27.4385 8.79004L24.6348 11.5928C24.6056 11.6321 24.5747 11.6714 24.5391 11.707C24.5035 11.7426 24.465 11.7737 24.4258 11.8027L9.64258 26.5879L9.6416 26.5898C9.26967 26.9606 8.82255 27.2461 8.33203 27.4287L8.11914 27.501L2.31445 29.2607L2.3125 29.2617C2.02454 29.3483 1.71837 29.3554 1.42676 29.2822C1.13497 29.2089 0.868196 29.0573 0.655273 28.8447C0.442372 28.6322 0.290618 28.3659 0.216797 28.0742C0.143082 27.7828 0.149339 27.4765 0.235352 27.1885L0.237305 27.1836L1.99805 21.3818L1.99902 21.3789C2.17523 20.8043 2.49044 20.2818 2.91602 19.8574L17.6934 5.07422C17.7228 5.03426 17.7558 4.99615 17.792 4.95996C17.8283 4.92369 17.8672 4.89086 17.9072 4.86133L20.709 2.05957C21.6014 1.16747 22.8124 0.665938 24.0742 0.666016ZM26.5 26C27.052 26.0004 27.5 26.448 27.5 27C27.5 27.552 27.052 27.9996 26.5 28H15.833C15.2807 28 14.833 27.5523 14.833 27C14.833 26.4477 15.2807 26 15.833 26H26.5ZM4.32812 21.2734C4.1347 21.4663 3.99124 21.7037 3.91113 21.9648L2.33203 27.165L7.53809 25.5869L7.72852 25.5156C7.9144 25.4331 8.08464 25.3172 8.22949 25.1729L22.4082 10.9902L18.5078 7.08984L4.32812 21.2734ZM24.0742 2.66602C23.4343 2.66595 22.817 2.88815 22.3262 3.29004L22.124 3.47363L19.9219 5.67578L23.8223 9.57617L26.0244 7.375C26.5416 6.85778 26.8319 6.15624 26.832 5.4248C26.8321 4.6933 26.5416 3.99194 26.0244 3.47461C25.5072 2.95726 24.8058 2.66612 24.0742 2.66602Z" fill="#F5F5F5"/>
</svg>
