<svg width="29" height="26" viewBox="0 0 29 26" fill="none" xmlns="http://www.w3.org/2000/svg">
<path d="M22.8672 16.9238C23.0053 16.3891 23.5503 16.068 24.085 16.2061C25.4435 16.5569 26.6472 17.3491 27.5068 18.458C28.3663 19.567 28.8339 20.93 28.835 22.333V25.001C28.8345 25.5528 28.3868 26.0009 27.835 26.001C27.283 26.001 26.8355 25.5528 26.835 25.001V22.335L26.8203 21.9766C26.7507 21.1444 26.4414 20.3466 25.9268 19.6826C25.3386 18.9239 24.5145 18.3817 23.585 18.1416C23.0504 18.0035 22.7294 17.4584 22.8672 16.9238ZM14.501 16C16.1807 16 17.7918 16.6677 18.9795 17.8555C20.167 19.0431 20.8349 20.6535 20.835 22.333V25C20.835 25.5522 20.3871 25.9998 19.835 26C19.2827 26 18.835 25.5523 18.835 25V22.333C18.8349 21.1839 18.3779 20.0821 17.5654 19.2695C16.7528 18.4569 15.6502 18 14.501 18H6.50098C5.35182 18.0001 4.25008 18.457 3.4375 19.2695C2.62492 20.0821 2.16806 21.1839 2.16797 22.333V25C2.16797 25.5523 1.72025 26 1.16797 26C0.615684 26 0.167969 25.5523 0.167969 25V22.333C0.168055 20.6534 0.835784 19.0431 2.02344 17.8555C3.21109 16.6678 4.82139 16.0001 6.50098 16H14.501ZM10.501 0C13.9987 0 16.8348 2.83535 16.835 6.33301C16.835 9.83081 13.9988 12.667 10.501 12.667C7.00332 12.6668 4.16797 9.8307 4.16797 6.33301C4.16814 2.83546 7.00343 0.000175998 10.501 0ZM18.8662 0.919922C19.0048 0.385358 19.5504 0.0645359 20.085 0.203125C21.443 0.555224 22.6463 1.34844 23.5049 2.45801C24.3632 3.56751 24.8291 4.93121 24.8291 6.33398C24.829 7.73655 24.3631 9.09965 23.5049 10.209C22.6463 11.3185 21.443 12.1118 20.085 12.4639C19.5504 12.6024 19.0049 12.2815 18.8662 11.7471C18.7277 11.2125 19.0485 10.667 19.583 10.5283C20.5122 10.2874 21.3354 9.74447 21.9229 8.98535C22.5101 8.22635 22.829 7.29364 22.8291 6.33398C22.8291 5.37412 22.5102 4.4408 21.9229 3.68164C21.3354 2.92245 20.5122 2.37958 19.583 2.13867C19.0485 2.00006 18.7278 1.45444 18.8662 0.919922ZM10.501 2C8.108 2.00018 6.16814 3.94003 6.16797 6.33301C6.16797 8.72613 8.10789 10.6668 10.501 10.667C12.8942 10.667 14.835 8.72624 14.835 6.33301C14.8348 3.93992 12.8941 2 10.501 2Z" fill="currentColor"/>
</svg>
