<svg width="25" height="25" viewBox="0 0 25 25" fill="none" xmlns="http://www.w3.org/2000/svg">
<path d="M23.2988 21.667C23.8511 21.6671 24.2988 22.1147 24.2988 22.667C24.2987 23.2191 23.851 23.6669 23.2988 23.667C23.0498 23.667 22.9043 23.7163 22.8008 23.7686C22.6775 23.8308 22.5655 23.9189 22.3711 24.0879C21.9804 24.4276 21.3658 24.9999 20.2324 25C19.6815 25 19.2262 24.8823 18.834 24.6846C18.4617 24.4969 18.1809 24.252 17.9922 24.0879C17.6165 23.7612 17.4977 23.667 17.165 23.667C16.9163 23.667 16.7715 23.7164 16.668 23.7686C16.5446 23.8308 16.4327 23.9188 16.2383 24.0879C15.8476 24.4276 15.2324 25 14.0986 25C13.5477 25 13.0924 24.8823 12.7002 24.6846C12.3281 24.4969 12.048 24.2519 11.8594 24.0879C11.4835 23.7611 11.3649 23.667 11.0322 23.667C10.7832 23.667 10.6377 23.7163 10.5342 23.7686C10.4108 23.8308 10.2989 23.9188 10.1045 24.0879C9.71383 24.4276 9.09923 24.9998 7.96582 25C7.41436 25 6.96064 24.8822 6.57031 24.6768C6.20386 24.4839 5.93238 24.2302 5.75977 24.0732C5.56579 23.8969 5.4706 23.8168 5.3623 23.7598C5.27766 23.7152 5.14688 23.667 4.89844 23.667C4.64973 23.667 4.50487 23.7164 4.40137 23.7686C4.27799 23.8308 4.16606 23.9189 3.97168 24.0879C3.58097 24.4276 2.96576 25 1.83203 25C1.27983 25 0.832163 24.5522 0.832031 24C0.832207 23.4479 1.27986 23 1.83203 23C2.16481 23 2.28334 22.9059 2.65918 22.5791C2.8479 22.415 3.12867 22.1702 3.50098 21.9824C3.89313 21.7848 4.34771 21.667 4.89844 21.667C5.44995 21.667 5.90359 21.7848 6.29395 21.9902C6.66039 22.1832 6.9319 22.4368 7.10449 22.5938C7.29844 22.7701 7.39364 22.8502 7.50195 22.9072C7.5866 22.9518 7.7175 23 7.96582 23C8.29826 22.9999 8.41727 22.9058 8.79297 22.5791C8.98167 22.415 9.26168 22.1701 9.63379 21.9824C10.0261 21.7846 10.4812 21.667 11.0322 21.667C12.1659 21.6671 12.7812 22.2394 13.1719 22.5791C13.3662 22.748 13.4773 22.8372 13.6006 22.8994C13.7041 22.9516 13.8497 23 14.0986 23C14.4314 23 14.55 22.9059 14.9258 22.5791C15.1145 22.415 15.3953 22.1702 15.7676 21.9824C16.1597 21.7848 16.6143 21.667 17.165 21.667C18.2988 21.667 18.914 22.2393 19.3047 22.5791C19.4992 22.7482 19.6109 22.8372 19.7344 22.8994C19.8379 22.9516 19.9836 23 20.2324 23C20.5649 22.9999 20.6839 22.9058 21.0596 22.5791C21.2483 22.415 21.5283 22.1701 21.9004 21.9824C22.2927 21.7846 22.7478 21.667 23.2988 21.667ZM12.499 0.333008C12.8777 0.333008 13.2241 0.547144 13.3936 0.885742L21.3936 16.8857C21.6405 17.3797 21.4403 17.9805 20.9463 18.2275C20.4523 18.4744 19.8515 18.2742 19.6045 17.7803L17.2139 13H7.78418L5.39355 17.7803C5.14657 18.2743 4.54574 18.4745 4.05176 18.2275C3.55803 17.9804 3.35756 17.3796 3.60449 16.8857L11.6045 0.885742L11.6758 0.764648C11.8607 0.496778 12.1677 0.333111 12.499 0.333008ZM8.78418 11H16.2139L12.499 3.56934L8.78418 11Z" fill="#F5F5F5"/>
</svg>
