<svg width="29" height="28" viewBox="0 0 29 28" fill="none" xmlns="http://www.w3.org/2000/svg">
<path d="M14.501 0.666992C15.0533 0.666992 15.501 1.11471 15.501 1.66699V6H22.501C23.4733 6.00009 24.4062 6.38666 25.0938 7.07422C25.7812 7.76182 26.167 8.69468 26.167 9.66699V14H27.835C28.3871 14.0002 28.835 14.4478 28.835 15C28.835 15.5522 28.3871 15.9998 27.835 16H26.167V20.333C26.167 21.3053 25.7812 22.2382 25.0938 22.9258C24.4062 23.6133 23.4733 23.9999 22.501 24H10.2715C9.82951 24.0001 9.40525 24.1757 9.09277 24.4883L6.15723 27.4248C5.88499 27.697 5.53772 27.8819 5.16016 27.957C4.78278 28.032 4.39163 27.9938 4.03613 27.8467C3.68055 27.6994 3.37601 27.4498 3.16211 27.1299C2.97501 26.8499 2.86373 26.5266 2.83887 26.1924L2.83398 26.0479V16H1.16797C0.615684 16 0.167969 15.5523 0.167969 15C0.167969 14.4477 0.615684 14 1.16797 14H2.83398V9.66699C2.83398 8.69453 3.22057 7.76185 3.9082 7.07422C4.59584 6.38659 5.52852 6 6.50098 6H13.501V2.66699H9.16797C8.61585 2.66699 8.16823 2.21905 8.16797 1.66699C8.16797 1.11471 8.61568 0.666992 9.16797 0.666992H14.501ZM6.50098 8C6.05895 8 5.63483 8.17572 5.32227 8.48828C5.00971 8.80084 4.83398 9.22496 4.83398 9.66699V14.9795C4.83412 14.9863 4.83496 14.9931 4.83496 15C4.83496 15.0069 4.83412 15.0137 4.83398 15.0205V25.9189L7.67871 23.0742C8.36618 22.3866 9.29912 22.0002 10.2715 22H22.501C22.9428 21.9999 23.3662 21.8241 23.6787 21.5117C23.9913 21.1992 24.167 20.775 24.167 20.333V9.66699C24.167 9.22497 23.9913 8.80084 23.6787 8.48828C23.3662 8.1759 22.9428 8.00009 22.501 8H6.50098ZM10.501 12.667C11.0533 12.667 11.501 13.1147 11.501 13.667V16.334C11.5005 16.8859 11.053 17.334 10.501 17.334C9.94896 17.334 9.50142 16.8859 9.50098 16.334V13.667C9.50098 13.1147 9.94869 12.667 10.501 12.667ZM18.501 12.667C19.0533 12.667 19.501 13.1147 19.501 13.667V16.334C19.5005 16.8859 19.053 17.334 18.501 17.334C17.949 17.334 17.5014 16.8859 17.501 16.334V13.667C17.501 13.1147 17.9487 12.667 18.501 12.667Z" fill="#F5F5F5"/>
</svg>
