<svg width="23" height="16" viewBox="0 0 23 16" fill="none" xmlns="http://www.w3.org/2000/svg">
<path d="M11 0C11.4295 2.89419e-05 11.8543 0.0922643 12.2451 0.270508L12.2441 0.271484L20.8154 4.17383L20.8145 4.1748C21.163 4.32664 21.462 4.57402 21.6748 4.88965C21.8933 5.21391 22.0115 5.59534 22.0156 5.98633C22.0196 6.37749 21.9092 6.76199 21.6973 7.09082C21.4871 7.41679 21.186 7.67377 20.832 7.83203L20.833 7.83301L18 9.11816V12C18 13.3662 16.9386 14.3911 15.6895 15.0156C14.4745 15.623 12.9156 15.9568 11.3193 15.9961L11 16C9.2936 16 7.60643 15.6635 6.31055 15.0156C5.06141 14.3911 4 13.3662 4 12V9.10547L1.18457 7.82227V7.82129C0.83485 7.66483 0.536966 7.41164 0.327148 7.09082C0.114513 6.76556 0.00104483 6.38469 0.000976562 5.99609C0.00102775 5.60766 0.114703 5.22752 0.327148 4.90234C0.5372 4.58103 0.835229 4.32639 1.18555 4.16992L9.75488 0.271484V0.270508C10.1456 0.0922801 10.5705 2.62162e-05 11 0ZM6 12L6.01074 12.0967C6.06328 12.3502 6.32825 12.7885 7.2041 13.2266C8.15862 13.7038 9.52392 14 11 14L11.5479 13.9863C12.8109 13.9232 13.9607 13.6442 14.7959 13.2266C15.7968 12.726 16 12.225 16 12V10.0264L12.2432 11.7314C11.853 11.9091 11.4287 12.0009 11 12.001C10.6243 12.001 10.2521 11.9299 9.90332 11.793L9.75488 11.7305L6 10.0176V12ZM11 2C10.857 2.00003 10.7151 2.03052 10.585 2.08984L10.584 2.09082L2.01367 5.99023L2.00098 5.99609L2.01465 6.00293L10.585 9.91016C10.7152 9.96956 10.8569 10.0009 11 10.001C11.143 10.0009 11.2849 9.96947 11.415 9.91016H11.417L20.0068 6.01172L20.0166 6.00781C20.0066 6.00363 19.9962 5.99864 19.9863 5.99414L11.415 2.09082V2.08984C11.2848 2.03045 11.1431 2.00003 11 2Z" fill="#F5F5F5"/>
</svg>
