<svg width="29" height="27" viewBox="0 0 29 27" fill="none" xmlns="http://www.w3.org/2000/svg">
<path d="M17 0.666992C17.9724 0.667073 18.9052 1.05365 19.5928 1.74121C20.2801 2.4288 20.667 3.36175 20.667 4.33398V6H25C27.0249 6.00017 28.667 7.64205 28.667 9.66699V23C28.667 25.0249 27.0249 26.6668 25 26.667H3.66699C1.64195 26.667 5.15447e-07 25.025 0 23V9.66699C0 7.64195 1.64195 6 3.66699 6H8V4.33398C8 3.36153 8.38659 2.42884 9.07422 1.74121C9.76185 1.05358 10.6945 0.666992 11.667 0.666992H17ZM26.667 18.1123C22.9088 20.2217 18.6628 21.3378 14.333 21.3379C10.0037 21.3378 5.75779 20.2223 2 18.1133V23C2 23.9205 2.74652 24.667 3.66699 24.667H25C25.9203 24.6668 26.667 23.9204 26.667 23V18.1123ZM3.66699 8C2.74652 8 2 8.74652 2 9.66699V15.7861C5.69238 18.1038 9.96637 19.3378 14.333 19.3379C18.7002 19.3378 22.9743 18.1034 26.667 15.7852V9.66699C26.667 8.74662 25.9203 8.00017 25 8H3.66699ZM14.3467 14C14.8988 14.0002 15.3467 14.4478 15.3467 15C15.3467 15.5522 14.8988 15.9998 14.3467 16H14.333C13.7807 16 13.333 15.5523 13.333 15C13.333 14.4477 13.7807 14 14.333 14H14.3467ZM11.667 2.66699C11.225 2.66699 10.8008 2.84271 10.4883 3.15527C10.1757 3.46783 10 3.89196 10 4.33398V6H18.667V4.33398C18.667 3.89218 18.491 3.46779 18.1787 3.15527C17.8662 2.84278 17.4419 2.66707 17 2.66699H11.667Z" fill="currentColor"/>
</svg>
