<svg width="24" height="25" viewBox="0 0 24 25" fill="none" xmlns="http://www.w3.org/2000/svg">
<path d="M22.3599 2.30947L0.624903 10.7203C0.611972 10.7252 0.599436 10.7312 0.587403 10.7381C0.411153 10.8379 -0.818846 11.5903 0.915529 12.2648L0.933341 12.2713L6.10881 13.9434C6.1483 13.9562 6.19011 13.9603 6.23132 13.9552C6.27253 13.9502 6.31215 13.9362 6.3474 13.9143L19.1841 5.90525C19.2156 5.88561 19.2506 5.87239 19.2872 5.86635C19.4658 5.83682 19.9801 5.7815 19.6547 6.19447C19.2868 6.66322 10.5188 14.5204 9.54568 15.3918C9.48957 15.4422 9.45485 15.5121 9.44865 15.5873L9.02397 20.6498C9.02391 20.7013 9.03587 20.7522 9.0589 20.7983C9.08193 20.8445 9.11538 20.8846 9.15662 20.9156C9.21514 20.9524 9.28395 20.9695 9.35291 20.9643C9.42186 20.959 9.48731 20.9318 9.53959 20.8865L12.6146 18.1382C12.6632 18.0948 12.7251 18.0693 12.7902 18.066C12.8553 18.0627 12.9195 18.0817 12.9722 18.1199L18.3371 22.0153L18.3544 22.027C18.4843 22.1071 19.8868 22.9232 20.2918 21.1007L23.9949 3.49213C24.0001 3.43635 24.0502 2.82322 23.6119 2.46088C23.1516 2.08213 22.5001 2.27338 22.4021 2.294C22.3876 2.29803 22.3735 2.3032 22.3599 2.30947Z" fill="#031C52"/>
</svg>
