<svg width="25" height="24" viewBox="0 0 25 24" fill="none" xmlns="http://www.w3.org/2000/svg">
<path d="M12.334 1C18.4091 1 23.334 5.92487 23.334 12C23.334 18.0751 18.4091 23 12.334 23C6.25885 23 1.33398 18.0751 1.33398 12C1.33398 5.92487 6.25885 1 12.334 1ZM12.334 3C7.36342 3 3.33398 7.02944 3.33398 12C3.33398 16.9706 7.36342 21 12.334 21C17.3045 21 21.334 16.9706 21.334 12C21.334 7.02944 17.3045 3 12.334 3ZM12.334 5C12.8863 5 13.334 5.44772 13.334 6V11.3818L16.7812 13.1055C17.2752 13.3525 17.4755 13.9533 17.2285 14.4473C16.9815 14.9412 16.3807 15.1415 15.8867 14.8945L11.8867 12.8945C11.5479 12.7251 11.334 12.3788 11.334 12V6C11.334 5.44772 11.7817 5 12.334 5Z" fill="currentColor"/>
</svg>
