<svg width="22" height="22" viewBox="0 0 22 22" fill="none" xmlns="http://www.w3.org/2000/svg">
<path d="M9.86624 0.346694C11.1667 -0.0746897 12.5614 -0.110544 13.8819 0.243179C14.138 0.311819 14.3567 0.479337 14.4893 0.708999C14.6219 0.938647 14.6575 1.21165 14.5889 1.46779L13.6182 5.08693C14.2924 4.96124 14.9849 4.9337 15.6739 5.00783C17.033 5.1541 18.3209 5.69079 19.3819 6.55275C20.4428 7.4148 21.2319 8.56575 21.6533 9.86623C22.0747 11.1667 22.1106 12.5614 21.7569 13.8819C21.6882 14.138 21.5207 14.3567 21.291 14.4893C21.0614 14.6218 20.7884 14.6575 20.5323 14.5889L16.9121 13.6182C17.0379 14.2925 17.0663 14.9848 16.9922 15.6738C16.8459 17.033 16.3093 18.3209 15.4473 19.3819C14.5852 20.4429 13.4343 21.2319 12.1338 21.6533C10.8334 22.0747 9.43861 22.1105 8.11819 21.7569C7.86211 21.6882 7.64336 21.5206 7.51077 21.291C7.37826 21.0614 7.34255 20.7883 7.41116 20.5322L8.38089 16.9121C7.70694 17.0377 7.01488 17.0663 6.3262 16.9922C4.96702 16.8459 3.67918 16.3093 2.61819 15.4473C1.5572 14.5852 0.768144 13.4343 0.346707 12.1338C-0.0746423 10.8334 -0.110516 9.4386 0.243191 8.11818C0.311847 7.86206 0.479376 7.64335 0.709012 7.51076C0.938636 7.37822 1.21169 7.34256 1.4678 7.41115L5.08694 8.38087C4.96141 7.70697 4.93374 7.01481 5.00784 6.32619C5.15411 4.967 5.69075 3.67917 6.55276 2.61818C7.41482 1.55717 8.56574 0.768127 9.86624 0.346694ZM12.3721 2.01369C11.7359 1.9732 11.0945 2.05069 10.4824 2.24904C9.54945 2.55141 8.72404 3.11779 8.1055 3.87892C7.48692 4.64026 7.1011 5.56473 6.99612 6.54005C6.89117 7.5154 7.07126 8.50045 7.5137 9.37599C7.69152 9.72793 7.64614 10.152 7.39749 10.458C7.14883 10.764 6.74319 10.895 6.36233 10.793L2.0137 9.62697C1.97305 10.2635 2.05059 10.9051 2.24905 11.5176C2.55147 12.4508 3.11759 13.2769 3.87893 13.8955C4.64026 14.5141 5.56477 14.8989 6.54007 15.0039C7.51542 15.1089 8.50047 14.9288 9.376 14.4863C9.72794 14.3085 10.152 14.3539 10.458 14.6026C10.764 14.8512 10.895 15.2569 10.793 15.6377L9.62698 19.9854C10.2635 20.026 10.9051 19.9495 11.5176 19.751C12.4508 19.4486 13.2769 18.8825 13.8955 18.1211C14.5141 17.3598 14.899 16.4353 15.0039 15.46C15.1089 14.4846 14.9288 13.4996 14.4864 12.624C14.3087 12.2723 14.3543 11.8489 14.6026 11.543C14.8512 11.237 15.2569 11.1051 15.6377 11.207L19.9854 12.3721C20.0259 11.7359 19.9494 11.0946 19.751 10.4824C19.4486 9.54943 18.8823 8.72402 18.1211 8.10548C17.3598 7.48689 16.4353 7.10108 15.46 6.99611C14.4846 6.89116 13.4996 7.07125 12.6241 7.51369C12.2723 7.69139 11.849 7.64578 11.543 7.39748C11.237 7.14882 11.105 6.74321 11.2071 6.36232L12.3721 2.01369ZM11 10C11.5523 10 12 10.4478 12 11V11.0098C12 11.5621 11.5523 12.0098 11 12.0098C10.4478 12.0098 10 11.5621 10 11.0098V11C10.0001 10.4478 10.4478 10 11 10Z" fill="#F5F5F5"/>
</svg>
