<svg width="29" height="23" viewBox="0 0 29 23" fill="none" xmlns="http://www.w3.org/2000/svg">
<path d="M22.501 0.666992C23.4733 0.667101 24.4062 1.05368 25.0938 1.74121C25.7812 2.42881 26.168 3.3617 26.168 4.33398V15.7021C26.1679 15.9614 26.2286 16.2174 26.3447 16.4492L27.7676 19.2832C27.9473 19.6401 28.0324 20.0383 28.0146 20.4375C27.9968 20.8366 27.8767 21.225 27.666 21.5645C27.4553 21.9038 27.1612 22.1839 26.8115 22.377C26.4637 22.5688 26.0719 22.6675 25.6748 22.666V22.667H3.32812V22.666C2.93093 22.6676 2.53929 22.5688 2.19141 22.377C1.84157 22.1839 1.54672 21.9039 1.33594 21.5645C1.12525 21.225 1.00513 20.8366 0.987305 20.4375C0.969584 20.0382 1.05549 19.6402 1.23535 19.2832L2.6582 16.4492L2.73438 16.2715C2.80044 16.0895 2.835 15.8967 2.83496 15.7021V4.33398C2.83496 3.36168 3.22078 2.42881 3.9082 1.74121C4.59575 1.05369 5.52866 0.667086 6.50098 0.666992H22.501ZM4.45996 17.3164C4.45524 17.326 4.4511 17.3361 4.44629 17.3457L4.44531 17.3467L3.02148 20.1826V20.1836C2.99582 20.2346 2.98282 20.2916 2.98535 20.3486C2.98796 20.4055 3.00513 20.4614 3.03516 20.5098C3.06522 20.558 3.10746 20.5985 3.15723 20.626C3.20712 20.6534 3.26436 20.6674 3.32129 20.667H25.6816L25.7656 20.6572C25.793 20.6503 25.8198 20.6397 25.8447 20.626C25.8945 20.5985 25.9367 20.558 25.9668 20.5098C25.9968 20.4614 26.014 20.4055 26.0166 20.3486C26.0191 20.2917 26.007 20.2345 25.9814 20.1836V20.1826L24.5566 17.3467V17.3457C24.5519 17.3362 24.5476 17.3259 24.543 17.3164H4.45996ZM6.50098 2.66699C6.05917 2.66709 5.6357 2.84292 5.32324 3.15527C5.01068 3.46783 4.83496 3.89196 4.83496 4.33398V15.3164H24.168V4.33398C24.168 3.89213 23.992 3.4678 23.6797 3.15527C23.3672 2.84282 22.9429 2.6671 22.501 2.66699H6.50098Z" fill="#F5F5F5"/>
</svg>
