<svg width="501" height="343" viewBox="0 0 501 343" fill="none" xmlns="http://www.w3.org/2000/svg">
<g clip-path="url(#clip0_312_3909)">
<rect width="501" height="343" rx="20" fill="url(#paint0_linear_312_3909)"/>
<rect x="18" y="241.983" width="128" height="48" rx="8" fill="#38FCFE" fill-opacity="0.2"/>
<path d="M43.1719 272.983V258.433H52.2539V260.317H45.3691V264.302H48.6211C49.7018 264.302 50.6198 264.478 51.375 264.829C52.1302 265.174 52.7096 265.669 53.1133 266.313C53.5169 266.951 53.7188 267.703 53.7188 268.569C53.7188 269.442 53.5169 270.21 53.1133 270.874C52.7096 271.532 52.1302 272.049 51.375 272.427C50.6198 272.798 49.7018 272.983 48.6211 272.983H43.1719ZM45.3691 271.128H48.6211C49.2526 271.128 49.7832 271.007 50.2129 270.767C50.6426 270.526 50.9714 270.207 51.1992 269.81C51.4271 269.412 51.541 268.993 51.541 268.55C51.541 267.892 51.2904 267.329 50.7891 266.86C50.2878 266.392 49.5651 266.157 48.6211 266.157H45.3691V271.128ZM58.4844 273.218C57.7943 273.218 57.1693 273.091 56.6094 272.837C56.0495 272.576 55.6068 272.199 55.2812 271.704C54.9557 271.209 54.793 270.607 54.793 269.897C54.793 269.279 54.9102 268.774 55.1445 268.384C55.3854 267.987 55.7077 267.671 56.1113 267.437C56.515 267.202 56.9642 267.026 57.459 266.909C57.9538 266.792 58.4616 266.701 58.9824 266.636C59.64 266.564 60.1706 266.502 60.5742 266.45C60.9779 266.398 61.2708 266.317 61.4531 266.206C61.6419 266.089 61.7363 265.903 61.7363 265.649V265.601C61.7363 264.982 61.5605 264.504 61.209 264.165C60.8639 263.826 60.3496 263.657 59.666 263.657C58.9564 263.657 58.3932 263.813 57.9766 264.126C57.5664 264.432 57.2832 264.78 57.127 265.171L55.125 264.712C55.3659 264.048 55.7142 263.514 56.1699 263.11C56.6322 262.7 57.1595 262.401 57.752 262.212C58.3509 262.023 58.9759 261.929 59.627 261.929C60.0632 261.929 60.5254 261.981 61.0137 262.085C61.502 262.183 61.9609 262.368 62.3906 262.642C62.8268 262.909 63.1816 263.293 63.4551 263.794C63.7285 264.295 63.8652 264.943 63.8652 265.737V272.983H61.7852V271.489H61.707C61.5768 271.756 61.3717 272.023 61.0918 272.29C60.8184 272.557 60.4668 272.778 60.0371 272.954C59.6074 273.13 59.0898 273.218 58.4844 273.218ZM58.9434 271.519C59.5358 271.519 60.0404 271.405 60.457 271.177C60.8737 270.942 61.1927 270.636 61.4141 270.259C61.6354 269.881 61.7461 269.481 61.7461 269.058V267.642C61.668 267.713 61.5215 267.782 61.3066 267.847C61.0918 267.912 60.8477 267.967 60.5742 268.013C60.3008 268.058 60.0339 268.101 59.7734 268.14C59.513 268.172 59.2949 268.198 59.1191 268.218C58.709 268.276 58.3346 268.368 57.9961 268.491C57.6576 268.608 57.3841 268.784 57.1758 269.019C56.974 269.246 56.873 269.549 56.873 269.927C56.873 270.454 57.0684 270.851 57.459 271.118C57.8496 271.385 58.3444 271.519 58.9434 271.519ZM65.6816 270.093H67.8398C67.8789 270.542 68.084 270.887 68.4551 271.128C68.8327 271.369 69.3242 271.493 69.9297 271.499C70.5352 271.493 71.0527 271.359 71.4824 271.099C71.9121 270.838 72.1302 270.425 72.1367 269.858C72.1367 269.533 72.0521 269.246 71.8828 268.999C71.7201 268.752 71.4889 268.56 71.1895 268.423C70.8965 268.28 70.5514 268.211 70.1543 268.218H68.377V266.548H70.1543C70.7467 266.548 71.1927 266.414 71.4922 266.147C71.7917 265.874 71.9414 265.529 71.9414 265.112C71.9414 264.663 71.7819 264.302 71.4629 264.028C71.1439 263.755 70.6979 263.621 70.125 263.628C69.5586 263.621 69.0833 263.748 68.6992 264.009C68.3151 264.263 68.1133 264.591 68.0938 264.995H65.9453C65.9583 264.39 66.1406 263.856 66.4922 263.394C66.8503 262.931 67.3353 262.573 67.9473 262.319C68.5592 262.059 69.2526 261.929 70.0273 261.929C70.8346 261.929 71.5345 262.059 72.127 262.319C72.7194 262.58 73.1784 262.941 73.5039 263.403C73.8294 263.859 73.9889 264.386 73.9824 264.985C73.9889 265.584 73.8099 266.076 73.4453 266.46C73.0872 266.844 72.6217 267.118 72.0488 267.28V267.388C72.472 267.42 72.8464 267.55 73.1719 267.778C73.5039 268 73.7611 268.299 73.9434 268.677C74.1322 269.048 74.2266 269.471 74.2266 269.946C74.2266 270.61 74.041 271.187 73.6699 271.675C73.3053 272.163 72.8008 272.541 72.1562 272.808C71.5117 273.068 70.7728 273.201 69.9395 273.208C69.1322 273.201 68.4095 273.071 67.7715 272.817C67.14 272.563 66.6387 272.205 66.2676 271.743C65.8965 271.274 65.7012 270.724 65.6816 270.093ZM79.7441 273.208C78.722 273.208 77.8268 272.974 77.0586 272.505C76.2969 272.036 75.7044 271.379 75.2812 270.532C74.8646 269.686 74.6562 268.703 74.6562 267.583C74.6562 266.45 74.8646 265.461 75.2812 264.614C75.7044 263.761 76.2969 263.101 77.0586 262.632C77.8268 262.163 78.722 261.929 79.7441 261.929C80.7728 261.929 81.668 262.163 82.4297 262.632C83.1914 263.101 83.7839 263.761 84.207 264.614C84.6302 265.461 84.8418 266.45 84.8418 267.583C84.8418 268.703 84.6302 269.686 84.207 270.532C83.7839 271.379 83.1914 272.036 82.4297 272.505C81.668 272.974 80.7728 273.208 79.7441 273.208ZM79.7441 271.421C80.4147 271.421 80.9681 271.245 81.4043 270.894C81.8405 270.542 82.1628 270.076 82.3711 269.497C82.5859 268.911 82.6934 268.273 82.6934 267.583C82.6934 266.88 82.5859 266.235 82.3711 265.649C82.1628 265.063 81.8405 264.595 81.4043 264.243C80.9681 263.892 80.4147 263.716 79.7441 263.716C79.0801 263.716 78.5299 263.892 78.0938 264.243C77.6641 264.595 77.3418 265.063 77.127 265.649C76.9121 266.235 76.8047 266.88 76.8047 267.583C76.8047 268.273 76.9121 268.911 77.127 269.497C77.3418 270.076 77.6641 270.542 78.0938 270.894C78.5299 271.245 79.0801 271.421 79.7441 271.421ZM86.375 272.983V262.065H90.8867C92.1172 262.072 93.0938 262.339 93.8164 262.866C94.5391 263.387 94.8971 264.097 94.8906 264.995C94.8971 265.633 94.6953 266.138 94.2852 266.509C93.875 266.873 93.3379 267.124 92.6738 267.261C93.1556 267.313 93.5983 267.456 94.002 267.69C94.4121 267.925 94.7409 268.241 94.9883 268.638C95.2422 269.028 95.3691 269.494 95.3691 270.034C95.3691 270.614 95.2161 271.128 94.9102 271.577C94.6107 272.02 94.181 272.365 93.6211 272.612C93.0612 272.86 92.3809 272.983 91.5801 272.983H86.375ZM88.3672 271.196H91.5801C92.1009 271.203 92.5111 271.082 92.8105 270.835C93.11 270.581 93.2565 270.239 93.25 269.81C93.2565 269.302 93.11 268.905 92.8105 268.618C92.5111 268.325 92.1009 268.179 91.5801 268.179H88.3672V271.196ZM88.3672 266.626H90.9062C91.5052 266.619 91.974 266.493 92.3125 266.245C92.6576 265.991 92.8268 265.649 92.8203 265.22C92.8268 264.797 92.6576 264.468 92.3125 264.233C91.9674 263.993 91.4922 263.872 90.8867 263.872H88.3672V266.626ZM98.4551 265.835H101.629C102.957 265.828 103.979 266.157 104.695 266.821C105.418 267.485 105.783 268.341 105.789 269.39C105.789 270.073 105.626 270.685 105.301 271.226C104.975 271.766 104.503 272.196 103.885 272.515C103.266 272.827 102.514 272.983 101.629 272.983H96.8633V262.065H98.9238V271.147H101.629C102.234 271.147 102.732 270.991 103.123 270.679C103.514 270.36 103.712 269.95 103.719 269.448C103.712 268.921 103.514 268.491 103.123 268.159C102.732 267.827 102.234 267.664 101.629 267.671H98.4551V265.835ZM107.342 272.983V262.065H109.451V272.983H107.342ZM113.533 269.995L118.348 262.065H120.633V272.983H118.562V265.044L113.768 272.983H111.473V262.065H113.533V269.995ZM116.033 260.796C115.102 260.796 114.347 260.542 113.768 260.034C113.188 259.52 112.898 258.853 112.898 258.032H114.646C114.646 258.449 114.773 258.787 115.027 259.048C115.281 259.302 115.617 259.429 116.033 259.429C116.45 259.429 116.785 259.302 117.039 259.048C117.293 258.787 117.42 258.449 117.42 258.032H119.168C119.168 258.853 118.878 259.52 118.299 260.034C117.719 260.542 116.964 260.796 116.033 260.796Z" fill="#F5F5F5"/>
<rect x="146" y="193.983" width="176" height="48" rx="8" fill="#38FCFE" fill-opacity="0.35"/>
<path d="M182.549 210.433V224.983H180.361V212.308H173.516V224.983H171.328V210.433H182.549ZM184.902 229.065V214.065H186.953V215.843H187.129C187.259 215.615 187.438 215.351 187.666 215.052C187.9 214.752 188.226 214.492 188.643 214.271C189.059 214.043 189.603 213.929 190.273 213.929C191.152 213.929 191.934 214.15 192.617 214.593C193.307 215.035 193.851 215.677 194.248 216.517C194.645 217.356 194.844 218.369 194.844 219.554C194.844 220.726 194.648 221.735 194.258 222.581C193.867 223.421 193.327 224.069 192.637 224.524C191.953 224.974 191.169 225.198 190.283 225.198C189.626 225.198 189.085 225.088 188.662 224.866C188.245 224.638 187.917 224.375 187.676 224.075C187.441 223.776 187.259 223.512 187.129 223.284H187.012V229.065H184.902ZM189.824 223.392C190.456 223.392 190.983 223.222 191.406 222.884C191.829 222.545 192.148 222.086 192.363 221.507C192.585 220.921 192.695 220.263 192.695 219.534C192.695 218.812 192.588 218.164 192.373 217.591C192.158 217.018 191.839 216.565 191.416 216.233C190.993 215.901 190.462 215.735 189.824 215.735C189.206 215.735 188.685 215.895 188.262 216.214C187.839 216.526 187.516 216.969 187.295 217.542C187.08 218.108 186.973 218.772 186.973 219.534C186.973 220.296 187.083 220.966 187.305 221.546C187.526 222.125 187.848 222.578 188.271 222.903C188.701 223.229 189.219 223.392 189.824 223.392ZM200.967 225.208C199.945 225.208 199.049 224.974 198.281 224.505C197.52 224.036 196.927 223.379 196.504 222.532C196.087 221.686 195.879 220.703 195.879 219.583C195.879 218.45 196.087 217.461 196.504 216.614C196.927 215.761 197.52 215.101 198.281 214.632C199.049 214.163 199.945 213.929 200.967 213.929C201.995 213.929 202.891 214.163 203.652 214.632C204.414 215.101 205.007 215.761 205.43 216.614C205.853 217.461 206.064 218.45 206.064 219.583C206.064 220.703 205.853 221.686 205.43 222.532C205.007 223.379 204.414 224.036 203.652 224.505C202.891 224.974 201.995 225.208 200.967 225.208ZM200.967 223.421C201.637 223.421 202.191 223.245 202.627 222.894C203.063 222.542 203.385 222.076 203.594 221.497C203.809 220.911 203.916 220.273 203.916 219.583C203.916 218.88 203.809 218.235 203.594 217.649C203.385 217.063 203.063 216.595 202.627 216.243C202.191 215.892 201.637 215.716 200.967 215.716C200.303 215.716 199.753 215.892 199.316 216.243C198.887 216.595 198.564 217.063 198.35 217.649C198.135 218.235 198.027 218.88 198.027 219.583C198.027 220.273 198.135 220.911 198.35 221.497C198.564 222.076 198.887 222.542 199.316 222.894C199.753 223.245 200.303 223.421 200.967 223.421ZM206.523 228.128V223.147H207.402C207.63 222.939 207.826 222.692 207.988 222.405C208.151 222.112 208.285 221.767 208.389 221.37C208.499 220.966 208.594 220.501 208.672 219.974C208.75 219.446 208.818 218.838 208.877 218.147L209.219 214.065H216.631V223.147H218.311V228.128H216.23V224.983H208.633V228.128H206.523ZM209.688 223.147H214.561V215.882H211.113L210.879 218.147C210.781 219.3 210.648 220.296 210.479 221.136C210.316 221.969 210.052 222.64 209.688 223.147ZM219.551 224.983V214.065H224.062C225.293 214.072 226.27 214.339 226.992 214.866C227.715 215.387 228.073 216.097 228.066 216.995C228.073 217.633 227.871 218.138 227.461 218.509C227.051 218.873 226.514 219.124 225.85 219.261C226.331 219.313 226.774 219.456 227.178 219.69C227.588 219.925 227.917 220.241 228.164 220.638C228.418 221.028 228.545 221.494 228.545 222.034C228.545 222.614 228.392 223.128 228.086 223.577C227.786 224.02 227.357 224.365 226.797 224.612C226.237 224.86 225.557 224.983 224.756 224.983H219.551ZM221.543 223.196H224.756C225.277 223.203 225.687 223.082 225.986 222.835C226.286 222.581 226.432 222.239 226.426 221.81C226.432 221.302 226.286 220.905 225.986 220.618C225.687 220.325 225.277 220.179 224.756 220.179H221.543V223.196ZM221.543 218.626H224.082C224.681 218.619 225.15 218.493 225.488 218.245C225.833 217.991 226.003 217.649 225.996 217.22C226.003 216.797 225.833 216.468 225.488 216.233C225.143 215.993 224.668 215.872 224.062 215.872H221.543V218.626ZM232.1 221.995L236.914 214.065H239.199V224.983H237.129V217.044L232.334 224.983H230.039V214.065H232.1V221.995ZM248.613 218.606V220.442H242.705V218.606H248.613ZM243.291 214.065V224.983H241.23V214.065H243.291ZM250.098 214.065V224.983H248.027V214.065H250.098ZM253.066 229.065C252.747 229.072 252.458 229.049 252.197 228.997C251.943 228.951 251.748 228.896 251.611 228.831L252.129 227.103L252.275 227.142C252.816 227.278 253.271 227.269 253.643 227.112C254.02 226.963 254.336 226.543 254.59 225.853L254.854 225.13L250.869 214.065H253.145L255.898 222.542H256.016L258.779 214.065H261.055L256.562 226.429C256.354 227.002 256.09 227.483 255.771 227.874C255.452 228.271 255.068 228.567 254.619 228.763C254.176 228.965 253.659 229.065 253.066 229.065ZM261.611 215.901V214.065H270.801V215.901H267.256V224.983H265.176V215.901H261.611ZM273.818 217.835H276.992C278.32 217.828 279.342 218.157 280.059 218.821C280.781 219.485 281.146 220.341 281.152 221.39C281.152 222.073 280.99 222.685 280.664 223.226C280.339 223.766 279.867 224.196 279.248 224.515C278.63 224.827 277.878 224.983 276.992 224.983H272.227V214.065H274.287V223.147H276.992C277.598 223.147 278.096 222.991 278.486 222.679C278.877 222.36 279.076 221.95 279.082 221.448C279.076 220.921 278.877 220.491 278.486 220.159C278.096 219.827 277.598 219.664 276.992 219.671H273.818V217.835ZM282.705 224.983V214.065H284.814V224.983H282.705ZM288.896 221.995L293.711 214.065H295.996V224.983H293.926V217.044L289.131 224.983H286.836V214.065H288.896V221.995ZM291.396 212.796C290.465 212.796 289.71 212.542 289.131 212.034C288.551 211.52 288.262 210.853 288.262 210.032H290.01C290.01 210.449 290.137 210.787 290.391 211.048C290.645 211.302 290.98 211.429 291.396 211.429C291.813 211.429 292.148 211.302 292.402 211.048C292.656 210.787 292.783 210.449 292.783 210.032H294.531C294.531 210.853 294.242 211.52 293.662 212.034C293.083 212.542 292.327 212.796 291.396 212.796Z" fill="#F5F5F5"/>
<g filter="url(#filter0_d_312_3909)">
<rect x="322" y="145.983" width="161" height="48" rx="8" fill="#38FCFE" fill-opacity="0.5" shape-rendering="crispEdges"/>
<path d="M356.547 168.956V170.812H350.473V168.956H356.547ZM346.713 172.354H348.949C349.066 173.318 349.382 174.054 349.896 174.562C350.411 175.069 351.215 175.323 352.309 175.323C353.116 175.323 353.777 175.108 354.291 174.679C354.812 174.249 355.199 173.666 355.453 172.931C355.707 172.195 355.831 171.371 355.824 170.46V168.995C355.831 167.999 355.691 167.14 355.404 166.417C355.124 165.688 354.711 165.125 354.164 164.728C353.624 164.33 352.963 164.135 352.182 164.142C351.479 164.135 350.899 164.252 350.443 164.493C349.994 164.728 349.649 165.069 349.408 165.519C349.174 165.968 349.018 166.508 348.939 167.14H346.703C346.801 166.202 347.064 165.366 347.494 164.63C347.924 163.888 348.526 163.305 349.301 162.882C350.082 162.452 351.042 162.237 352.182 162.237C353.386 162.237 354.424 162.517 355.297 163.077C356.176 163.631 356.856 164.412 357.338 165.421C357.82 166.424 358.057 167.605 358.051 168.966V170.479C358.057 171.84 357.823 173.022 357.348 174.024C356.879 175.027 356.215 175.805 355.355 176.358C354.496 176.905 353.48 177.179 352.309 177.179C351.143 177.179 350.16 176.97 349.359 176.554C348.559 176.131 347.94 175.558 347.504 174.835C347.068 174.106 346.804 173.279 346.713 172.354ZM359.77 176.983V166.065H361.879V170.646H362.904L366.508 166.065H369.125L364.916 171.388L369.184 176.983H366.547L363.256 172.618H361.879V176.983H359.77ZM374.115 177.208C373.067 177.208 372.162 176.967 371.4 176.485C370.639 176.004 370.053 175.34 369.643 174.493C369.232 173.647 369.027 172.677 369.027 171.583C369.027 170.47 369.236 169.49 369.652 168.644C370.076 167.791 370.665 167.127 371.42 166.651C372.182 166.17 373.074 165.929 374.096 165.929C374.929 165.929 375.668 166.082 376.312 166.388C376.964 166.687 377.488 167.114 377.885 167.667C378.288 168.22 378.526 168.865 378.598 169.601H376.527C376.456 169.256 376.316 168.94 376.107 168.653C375.906 168.367 375.639 168.139 375.307 167.97C374.975 167.8 374.581 167.716 374.125 167.716C373.533 167.716 373.015 167.872 372.572 168.185C372.136 168.491 371.794 168.93 371.547 169.503C371.299 170.076 371.176 170.753 371.176 171.534C371.176 172.322 371.296 173.009 371.537 173.595C371.778 174.181 372.12 174.633 372.562 174.952C373.012 175.265 373.533 175.421 374.125 175.421C374.737 175.421 375.258 175.252 375.688 174.913C376.124 174.575 376.404 174.112 376.527 173.526H378.598C378.526 174.236 378.298 174.868 377.914 175.421C377.53 175.974 377.016 176.41 376.371 176.729C375.727 177.049 374.975 177.208 374.115 177.208ZM380.102 176.983V166.065H388.988V176.983H386.908V167.901H382.152V176.983H380.102ZM395.717 177.208C394.649 177.208 393.725 176.977 392.943 176.515C392.162 176.052 391.56 175.401 391.137 174.562C390.72 173.715 390.512 172.729 390.512 171.603C390.512 170.483 390.717 169.496 391.127 168.644C391.544 167.791 392.126 167.127 392.875 166.651C393.63 166.17 394.516 165.929 395.531 165.929C396.15 165.929 396.749 166.03 397.328 166.231C397.908 166.433 398.428 166.752 398.891 167.188C399.353 167.625 399.717 168.191 399.984 168.888C400.258 169.584 400.395 170.424 400.395 171.407V172.169H391.713V170.577H399.301L398.314 171.104C398.314 170.434 398.21 169.841 398.002 169.327C397.794 168.813 397.481 168.412 397.064 168.126C396.654 167.833 396.143 167.687 395.531 167.687C394.919 167.687 394.395 167.833 393.959 168.126C393.529 168.419 393.201 168.806 392.973 169.288C392.745 169.77 392.631 170.297 392.631 170.87V171.954C392.631 172.703 392.761 173.338 393.021 173.858C393.282 174.379 393.643 174.776 394.105 175.05C394.574 175.323 395.118 175.46 395.736 175.46C396.14 175.46 396.505 175.401 396.83 175.284C397.162 175.167 397.449 174.991 397.689 174.757C397.93 174.522 398.113 174.233 398.236 173.888L400.248 174.269C400.085 174.854 399.799 175.369 399.389 175.812C398.979 176.254 398.461 176.599 397.836 176.847C397.217 177.088 396.511 177.208 395.717 177.208ZM401.879 181.065V166.065H403.93V167.843H404.105C404.236 167.615 404.415 167.351 404.643 167.052C404.877 166.752 405.202 166.492 405.619 166.271C406.036 166.043 406.579 165.929 407.25 165.929C408.129 165.929 408.91 166.15 409.594 166.593C410.284 167.035 410.827 167.677 411.225 168.517C411.622 169.356 411.82 170.369 411.82 171.554C411.82 172.726 411.625 173.735 411.234 174.581C410.844 175.421 410.303 176.069 409.613 176.524C408.93 176.974 408.145 177.198 407.26 177.198C406.602 177.198 406.062 177.088 405.639 176.866C405.222 176.638 404.893 176.375 404.652 176.075C404.418 175.776 404.236 175.512 404.105 175.284H403.988V181.065H401.879ZM406.801 175.392C407.432 175.392 407.96 175.222 408.383 174.884C408.806 174.545 409.125 174.086 409.34 173.507C409.561 172.921 409.672 172.263 409.672 171.534C409.672 170.812 409.564 170.164 409.35 169.591C409.135 169.018 408.816 168.565 408.393 168.233C407.969 167.901 407.439 167.735 406.801 167.735C406.182 167.735 405.661 167.895 405.238 168.214C404.815 168.526 404.493 168.969 404.271 169.542C404.057 170.108 403.949 170.772 403.949 171.534C403.949 172.296 404.06 172.966 404.281 173.546C404.503 174.125 404.825 174.578 405.248 174.903C405.678 175.229 406.195 175.392 406.801 175.392ZM412.045 167.901V166.065H421.234V167.901H417.689V176.983H415.609V167.901H412.045ZM430.043 170.606V172.442H424.135V170.606H430.043ZM424.721 166.065V176.983H422.66V166.065H424.721ZM431.527 166.065V176.983H429.457V166.065H431.527ZM435.15 169.835H438.324C439.652 169.828 440.674 170.157 441.391 170.821C442.113 171.485 442.478 172.341 442.484 173.39C442.484 174.073 442.322 174.685 441.996 175.226C441.671 175.766 441.199 176.196 440.58 176.515C439.962 176.827 439.21 176.983 438.324 176.983H433.559V166.065H435.619V175.147H438.324C438.93 175.147 439.428 174.991 439.818 174.679C440.209 174.36 440.408 173.95 440.414 173.448C440.408 172.921 440.209 172.491 439.818 172.159C439.428 171.827 438.93 171.664 438.324 171.671H435.15V169.835ZM444.037 176.983V166.065H446.146V176.983H444.037ZM450.229 173.995L455.043 166.065H457.328V176.983H455.258V169.044L450.463 176.983H448.168V166.065H450.229V173.995ZM452.729 164.796C451.798 164.796 451.042 164.542 450.463 164.034C449.883 163.52 449.594 162.853 449.594 162.032H451.342C451.342 162.449 451.469 162.787 451.723 163.048C451.977 163.302 452.312 163.429 452.729 163.429C453.145 163.429 453.48 163.302 453.734 163.048C453.988 162.787 454.115 162.449 454.115 162.032H455.863C455.863 162.853 455.574 163.52 454.994 164.034C454.415 164.542 453.66 164.796 452.729 164.796Z" fill="#F5F5F5"/>
</g>
<line y1="289.483" x2="501" y2="289.483" stroke="white" stroke-opacity="0.2" stroke-dasharray="20 20"/>
<line y1="241.483" x2="501" y2="241.483" stroke="white" stroke-opacity="0.2" stroke-dasharray="20 20"/>
<line y1="193.483" x2="501" y2="193.483" stroke="white" stroke-opacity="0.2" stroke-dasharray="20 20"/>
<path d="M82.5 242.483C119.5 125.5 233.5 78.4831 233.5 193.483C286.5 39.4993 405.5 -29.5172 405.5 144.983C401.167 120.322 451.5 -13 513.5 -28" stroke="url(#paint1_linear_312_3909)"/>
</g>
<defs>
<filter id="filter0_d_312_3909" x="298" y="121.983" width="209" height="96" filterUnits="userSpaceOnUse" color-interpolation-filters="sRGB">
<feFlood flood-opacity="0" result="BackgroundImageFix"/>
<feColorMatrix in="SourceAlpha" type="matrix" values="0 0 0 0 0 0 0 0 0 0 0 0 0 0 0 0 0 0 127 0" result="hardAlpha"/>
<feOffset/>
<feGaussianBlur stdDeviation="12"/>
<feComposite in2="hardAlpha" operator="out"/>
<feColorMatrix type="matrix" values="0 0 0 0 0.219608 0 0 0 0 0.988235 0 0 0 0 0.996078 0 0 0 0.4 0"/>
<feBlend mode="normal" in2="BackgroundImageFix" result="effect1_dropShadow_312_3909"/>
<feBlend mode="normal" in="SourceGraphic" in2="effect1_dropShadow_312_3909" result="shape"/>
</filter>
<linearGradient id="paint0_linear_312_3909" x1="250.5" y1="0" x2="250.5" y2="343" gradientUnits="userSpaceOnUse">
<stop stop-color="#38FCFE" stop-opacity="0.49"/>
<stop offset="1" stop-color="#38FCFE" stop-opacity="0.15"/>
</linearGradient>
<linearGradient id="paint1_linear_312_3909" x1="82.5" y1="107.241" x2="513.5" y2="107.241" gradientUnits="userSpaceOnUse">
<stop offset="0.710156" stop-color="white"/>
<stop offset="0.878383" stop-color="white" stop-opacity="0"/>
</linearGradient>
<clipPath id="clip0_312_3909">
<rect width="501" height="343" rx="20" fill="white"/>
</clipPath>
</defs>
</svg>
